<?xml version="1.0" encoding="UTF-8" standalone="no"?>
<!-- Created with Inkscape (http://www.inkscape.org/) -->

<svg
   version="1.1"
   id="svg2"
   width="336.10666"
   height="427.65332"
   viewBox="0 0 336.10666 427.65332"
   sodipodi:docname="Logo-ENPC-IP-cmjn_Vertical-01.eps"
   xmlns:inkscape="http://www.inkscape.org/namespaces/inkscape"
   xmlns:sodipodi="http://sodipodi.sourceforge.net/DTD/sodipodi-0.dtd"
   xmlns="http://www.w3.org/2000/svg"
   xmlns:svg="http://www.w3.org/2000/svg">
  <defs
     id="defs6" />
  <sodipodi:namedview
     id="namedview4"
     pagecolor="#ffffff"
     bordercolor="#000000"
     borderopacity="0.25"
     inkscape:showpageshadow="2"
     inkscape:pageopacity="0.0"
     inkscape:pagecheckerboard="0"
     inkscape:deskcolor="#d1d1d1" />
  <g
     id="g8"
     inkscape:groupmode="layer"
     inkscape:label="ink_ext_XXXXXX"
     transform="matrix(1.3333333,0,0,-1.3333333,0,427.65333)">
    <g
       id="g10"
       transform="scale(0.1)">
      <path
         d="m 1913.41,1870.71 -624.95,1082.55 -25.7,44.46 -25.7,-44.46 -625.029,-1082.55 -25.703,-44.55 H 1939.1 l -25.69,44.55 z m -332.72,14.82 -131.21,212.46 264.26,-0.1 0.19,-0.38 -131.02,-211.98 h -2.22 z m -635.96,0 -131.847,213.53 264.697,-0.09 -132.014,-213.44 H 944.73 Z M 1264.22,1898 995.934,2367.3 1532.74,2367.13 1264.22,1898 Z m 31.12,524.57 119.39,193.24 111.55,-193.24 h -230.94 z m -31.98,0.95 -132.32,214.22 264.7,-0.07 -132.38,-214.15 z m -32.04,-0.91 -232.086,0.03 112.166,194.24 119.92,-194.27 z M 1069.66,2126.73 H 828.402 l 121.196,209.91 120.062,-209.91 z m 27.66,-48.48 110.25,-192.72 H 978.191 l 119.129,192.72 z m 332.86,-1.81 117.95,-190.91 h -227.21 l 109.26,190.91 z m 28.18,49.23 119.14,208.19 120.24,-208.29 -239.38,0.1 z m -195.6,753.39 123.33,-213.75 -246.69,0.1 123.36,213.65 z M 796.895,2072.17 912.188,1885.53 H 689.141 l 107.754,186.64 z m 818.535,-186.64 114.22,184.77 106.67,-184.77 h -220.89 v 0"
         style="fill:#6b7075;fill-opacity:1;fill-rule:nonzero;stroke:none"
         id="path12" />
      <path
         d="m 600.82,1677.1 -4.914,7.15 19.387,15.87 6.141,-8.86 z M 581.707,1573 v 96.52 h 47.371 v -10.87 h -34.812 v -30.6 h 33.175 v -10.58 h -33.175 v -33.46 h 34.812 V 1573 h -47.371"
         style="fill:#41aec7;fill-opacity:1;fill-rule:nonzero;stroke:none"
         id="path14" />
      <path
         d="m 688.727,1571.86 c -29.625,0 -41.911,19.73 -41.911,46.9 0,29.46 13.922,51.62 45.051,51.62 7.102,0 14.336,-1.15 20.887,-2.86 l -1.363,-12.01 c -7.098,2.29 -13.926,3.43 -20.887,3.43 -21.027,0 -30.035,-16.87 -30.035,-38.03 0,-23.74 9.828,-37.33 31.261,-37.33 6.692,0 15.153,2.01 20.614,4.87 l 1.367,-11.73 c -6.961,-3 -15.699,-4.86 -24.984,-4.86"
         style="fill:#41aec7;fill-opacity:1;fill-rule:nonzero;stroke:none"
         id="path16" />
      <path
         d="m 766.805,1659.37 c -15.289,0 -28.942,-13.01 -28.942,-37.32 0,-23.02 9.282,-38.75 28.805,-38.75 15.016,0 29.215,12.58 29.215,37.46 0,24.74 -10.649,38.61 -29.078,38.61 z m -1.227,-87.8 c -27.715,0 -41.094,19.31 -41.094,48.62 0,32.17 19.661,50.76 43.688,50.76 24.844,0 41.094,-16.87 41.094,-48.62 0,-32.17 -19.661,-50.76 -43.688,-50.76"
         style="fill:#41aec7;fill-opacity:1;fill-rule:nonzero;stroke:none"
         id="path18" />
      <path
         d="m 828.633,1573 v 96.52 h 12.558 V 1584.3 H 874.23 V 1573 h -45.597"
         style="fill:#41aec7;fill-opacity:1;fill-rule:nonzero;stroke:none"
         id="path20" />
      <path
         d="m 888.828,1573 v 96.52 h 47.375 v -10.87 h -34.812 v -30.6 h 33.175 v -10.58 h -33.175 v -33.46 h 34.812 V 1573 h -47.375"
         style="fill:#41aec7;fill-opacity:1;fill-rule:nonzero;stroke:none"
         id="path22" />
      <path
         d="m 1048,1573 -35.09,59.77 c -4.23,7.01 -7.51,13.59 -10.51,20.02 0.55,-10.29 0.96,-33.46 0.96,-48.76 V 1573 h -12.294 v 96.52 h 16.524 l 34.26,-57.91 c 4.1,-6.86 7.92,-14.3 11.34,-21.16 -0.55,11.87 -0.96,35.6 -0.96,51.62 v 27.45 h 12.15 V 1573 H 1048"
         style="fill:#41aec7;fill-opacity:1;fill-rule:nonzero;stroke:none"
         id="path24" />
      <path
         d="m 1123.61,1640.5 c -1.77,4.86 -3,9.43 -4.09,14.44 h -0.28 c -1.09,-4.72 -2.45,-9.73 -4.23,-14.59 l -11.88,-34.32 h 32.5 z m 23.08,-67.5 -7.65,22.6 h -39.18 l -7.65,-22.6 h -12.83 l 33.58,96.52 h 13.93 l 33.86,-96.52 h -14.06"
         style="fill:#41aec7;fill-opacity:1;fill-rule:nonzero;stroke:none"
         id="path26" />
      <path
         d="M 1195.28,1658.51 V 1573 h -12.56 v 85.51 h -26.49 v 11.01 h 65.67 v -11.01 h -26.62"
         style="fill:#41aec7;fill-opacity:1;fill-rule:nonzero;stroke:none"
         id="path28" />
      <path
         d="m 1236.5,1573 v 96.52 h 12.56 V 1573 h -12.56"
         style="fill:#41aec7;fill-opacity:1;fill-rule:nonzero;stroke:none"
         id="path30" />
      <path
         d="m 1310.76,1659.37 c -15.3,0 -28.95,-13.01 -28.95,-37.32 0,-23.02 9.29,-38.75 28.81,-38.75 15.02,0 29.21,12.58 29.21,37.46 0,24.74 -10.64,38.61 -29.07,38.61 z m -1.23,-87.8 c -27.72,0 -41.1,19.31 -41.1,48.62 0,32.17 19.66,50.76 43.69,50.76 24.85,0 41.09,-16.87 41.09,-48.62 0,-32.17 -19.65,-50.76 -43.68,-50.76"
         style="fill:#41aec7;fill-opacity:1;fill-rule:nonzero;stroke:none"
         id="path32" />
      <path
         d="m 1429.51,1573 -35.09,59.77 c -4.23,7.01 -7.5,13.59 -10.51,20.02 0.55,-10.29 0.96,-33.46 0.96,-48.76 V 1573 h -12.29 v 96.52 h 16.52 l 34.27,-57.91 c 4.09,-6.86 7.92,-14.3 11.33,-21.16 -0.55,11.87 -0.95,35.6 -0.95,51.62 v 27.45 h 12.15 V 1573 h -16.39"
         style="fill:#41aec7;fill-opacity:1;fill-rule:nonzero;stroke:none"
         id="path34" />
      <path
         d="m 1505.13,1640.5 c -1.78,4.86 -3.01,9.43 -4.1,14.44 h -0.27 c -1.09,-4.72 -2.46,-9.73 -4.24,-14.59 l -11.87,-34.32 h 32.49 z m 23.07,-67.5 -7.64,22.6 h -39.19 l -7.64,-22.6 h -12.83 l 33.58,96.52 h 13.92 l 33.86,-96.52 h -14.06"
         style="fill:#41aec7;fill-opacity:1;fill-rule:nonzero;stroke:none"
         id="path36" />
      <path
         d="m 1557.13,1573 v 96.52 h 12.56 v -85.22 h 33.04 V 1573 h -45.6"
         style="fill:#41aec7;fill-opacity:1;fill-rule:nonzero;stroke:none"
         id="path38" />
      <path
         d="m 1617.33,1573 v 96.52 h 47.37 v -10.87 h -34.81 v -30.6 h 33.17 v -10.58 h -33.17 v -33.46 h 34.81 V 1573 h -47.37"
         style="fill:#41aec7;fill-opacity:1;fill-rule:nonzero;stroke:none"
         id="path40" />
      <path
         d="m 1745.91,1659.23 c -4.78,0 -10.37,-0.29 -13.79,-0.43 v -74.36 c 3.42,-0.57 8.47,-0.86 12.15,-0.86 21.57,0 36.72,11.73 36.72,37.9 0,24.59 -11.19,37.75 -35.08,37.75 z m -3,-86.8 c -9.28,0 -16.52,0.57 -23.35,0.57 v 96.38 c 7.1,0.14 17.48,0.57 27.58,0.57 29.49,0 47.1,-14.44 47.1,-47.62 0,-33.03 -21.16,-49.9 -51.33,-49.9"
         style="fill:#41aec7;fill-opacity:1;fill-rule:nonzero;stroke:none"
         id="path42" />
      <path
         d="m 1814.16,1573 v 96.52 h 47.37 v -10.87 h -34.81 v -30.6 h 33.17 v -10.58 h -33.17 v -33.46 h 34.81 V 1573 h -47.37"
         style="fill:#41aec7;fill-opacity:1;fill-rule:nonzero;stroke:none"
         id="path44" />
      <path
         d="m 1900.15,1571.72 c -6.69,0 -13.24,0.86 -18.56,2.29 l 0.68,12.58 c 5.32,-2 12.56,-3.58 18.97,-3.58 11.06,0 20.21,4.72 20.21,16.59 0,21.73 -41.5,13.15 -41.5,43.9 0,15.87 12.01,27.31 32.76,27.31 5.6,0 11.2,-0.57 16.66,-1.72 l -0.68,-11.72 c -5.33,1.57 -11.2,2.57 -16.66,2.57 -12.56,0 -19.12,-6 -19.12,-15.01 0,-20.88 41.65,-13.3 41.65,-43.47 0,-17.3 -12.97,-29.74 -34.41,-29.74"
         style="fill:#41aec7;fill-opacity:1;fill-rule:nonzero;stroke:none"
         id="path46" />
      <path
         d="m 699.297,1411.28 c 0,12.07 -3.797,21.65 -11.371,28.75 -7.586,7.1 -19.574,10.65 -35.977,10.65 -2.98,0 -5.906,0 -8.758,0 -2.863,0 -5.656,-0.13 -8.39,-0.36 v -79.86 c 4.719,-0.71 9.445,-1.06 14.168,-1.06 14.91,0.23 27.027,4.02 36.347,11.36 9.321,7.33 13.981,17.5 13.981,30.52 z m 49.953,3.19 c 0,-11.59 -2.23,-22.48 -6.695,-32.65 -4.461,-10.17 -10.961,-18.99 -19.504,-26.44 -8.547,-7.46 -18.887,-13.31 -31.028,-17.57 -12.136,-4.26 -25.761,-6.39 -40.871,-6.39 -2.23,0 -4.769,0 -7.621,0 -2.847,0 -5.758,0.23 -8.73,0.71 v -84.47 H 586.34 v 239.57 c 10.414,0.48 21.137,0.83 32.168,1.07 11.035,0.23 22.754,0.35 35.156,0.35 30.988,0 54.664,-6.45 71.031,-19.34 16.371,-12.9 24.555,-31.18 24.555,-54.84"
         style="fill:#41aec7;fill-opacity:1;fill-rule:nonzero;stroke:none"
         id="path48" />
      <path
         d="m 1028.47,1367.27 c 0,26.73 -5.73,47.14 -17.15,61.22 -11.437,14.08 -28.09,21.12 -49.957,21.12 -8.703,0 -17.09,-1.66 -25.164,-4.97 -8.078,-3.31 -15.164,-8.28 -21.25,-14.9 -6.09,-6.63 -10.996,-14.97 -14.726,-25.03 -3.723,-10.06 -5.59,-21.82 -5.59,-35.31 0,-12.78 1.305,-24.31 3.914,-34.61 2.609,-10.29 6.648,-19.05 12.117,-26.26 5.465,-7.22 12.359,-12.84 20.691,-16.86 8.321,-4.03 18.079,-6.03 29.262,-6.03 8.199,0 16.34,1.53 24.418,4.61 8.07,3.08 15.345,7.93 21.805,14.55 6.46,6.63 11.68,15.09 15.66,25.38 3.97,10.29 5.97,22.65 5.97,37.09 z m 51.81,3.55 c 0,-19.88 -3.23,-37.62 -9.69,-53.24 -6.47,-15.62 -15.23,-28.92 -26.28,-39.93 -11.06,-11 -24.05,-19.4 -38.96,-25.2 -14.909,-5.8 -30.94,-8.69 -48.088,-8.69 -19.141,0 -35.918,2.78 -50.328,8.34 -14.414,5.55 -26.344,13.6 -35.786,24.13 -9.449,10.53 -16.531,23.25 -21.25,38.16 -4.722,14.9 -7.082,31.58 -7.082,50.04 0,19.88 3.227,37.62 9.692,53.24 6.461,15.61 15.285,28.86 26.469,39.75 11.183,10.88 24.23,19.22 39.144,25.02 14.91,5.8 30.813,8.7 47.715,8.7 16.648,0 31.996,-2.43 46.044,-7.28 14.03,-4.85 26.15,-12.24 36.34,-22.18 10.19,-9.94 18.08,-22.42 23.67,-37.45 5.6,-15.02 8.39,-32.83 8.39,-53.41"
         style="fill:#41aec7;fill-opacity:1;fill-rule:nonzero;stroke:none"
         id="path50" />
      <path
         d="m 1336.76,1247.66 -73.81,121.03 c -5.73,8.99 -10.76,17.86 -15.11,26.62 -4.35,8.75 -8.38,17.04 -12.11,24.84 0.24,-5.21 0.56,-11.3 0.93,-18.28 0.38,-6.98 0.62,-14.37 0.75,-22.18 0.12,-7.81 0.24,-15.74 0.37,-23.78 0.12,-8.05 0.19,-15.62 0.19,-22.71 v -85.54 H 1191 v 239.57 h 63 l 70.08,-114.28 c 5.72,-9.23 11.12,-18.7 16.22,-28.4 5.09,-9.7 10,-19.04 14.72,-28.04 -0.5,5.92 -0.93,12.9 -1.3,20.94 -0.37,8.05 -0.62,16.45 -0.75,25.21 -0.12,8.75 -0.25,17.44 -0.37,26.08 -0.13,8.64 -0.19,16.62 -0.19,23.96 v 74.53 h 46.97 v -239.57 h -62.62"
         style="fill:#41aec7;fill-opacity:1;fill-rule:nonzero;stroke:none"
         id="path52" />
      <path
         d="m 1617.09,1447.84 v -200.18 h -48.46 v 200.18 h -65.24 v 39.39 h 178.94 v -39.39 h -65.24"
         style="fill:#41aec7;fill-opacity:1;fill-rule:nonzero;stroke:none"
         id="path54" />
      <path
         d="m 1932.47,1321.97 c 0,-11.38 -2.3,-21.8 -6.9,-31.29 -4.59,-9.48 -11.18,-17.71 -19.74,-24.7 -8.58,-7 -19.01,-12.45 -31.3,-16.36 -12.3,-3.9 -26.14,-5.86 -41.55,-5.86 -8.94,0 -17.76,0.47 -26.45,1.42 -8.7,0.94 -17.02,2.36 -24.97,4.26 l 2.98,42.94 c 7.2,-2.37 15.46,-4.38 24.78,-6.04 9.31,-1.65 18.55,-2.48 27.75,-2.48 12.41,0 22.78,2.48 31.1,7.46 8.32,4.97 12.48,13 12.48,24.13 0,7.57 -2.61,13.6 -7.82,18.1 -5.22,4.49 -11.75,8.4 -19.58,11.71 -7.83,3.31 -16.28,6.57 -25.35,9.76 -9.07,3.2 -17.52,7.33 -25.35,12.43 -7.83,5.08 -14.35,11.65 -19.57,19.69 -5.22,8.05 -7.82,18.69 -7.82,31.95 0,10.65 2.19,20.41 6.56,29.28 4.38,8.87 10.7,16.44 18.96,22.72 8.26,6.26 18.32,11.17 30.15,14.72 11.84,3.55 25.34,5.33 40.5,5.33 7.21,0 14.73,-0.41 22.56,-1.23 7.82,-0.83 15.47,-1.82 22.93,-2.99 l -2.62,-40.15 c -7.2,1.89 -14.6,3.43 -22.18,4.62 -7.58,1.18 -15.22,1.77 -22.92,1.77 -14.17,0 -24.73,-2.73 -31.69,-8.18 -6.96,-5.45 -10.44,-12.45 -10.44,-20.97 0,-7.11 2.6,-12.86 7.8,-17.24 5.2,-4.39 11.7,-8.3 19.5,-11.74 7.8,-3.44 16.28,-6.81 25.45,-10.13 9.17,-3.32 17.64,-7.59 25.45,-12.8 7.79,-5.21 14.29,-11.74 19.5,-19.55 5.2,-7.82 7.8,-18.02 7.8,-30.58"
         style="fill:#41aec7;fill-opacity:1;fill-rule:nonzero;stroke:none"
         id="path56" />
      <path
         d="m 581.707,1001.19 v 96.52 h 47.371 v -10.87 h -34.812 v -30.6 h 33.175 v -10.58 h -33.175 v -33.47 h 34.812 v -11 h -47.371"
         style="fill:#41aec7;fill-opacity:1;fill-rule:nonzero;stroke:none"
         id="path58" />
      <path
         d="m 683.402,1086.69 v -85.5 h -12.558 v 85.5 h -26.485 v 11.02 h 65.664 v -11.02 h -26.621"
         style="fill:#41aec7;fill-opacity:1;fill-rule:nonzero;stroke:none"
         id="path60" />
      <path
         d="m 856.781,1000.95 c -6.629,-1.259 -13.554,-1.891 -20.785,-1.891 -13.406,0 -24.594,2.131 -33.551,6.391 -8.965,4.25 -16.195,9.97 -21.687,17.15 -5.5,7.18 -9.418,15.38 -11.75,24.61 -2.336,9.23 -3.5,18.81 -3.5,28.75 0,12.61 1.578,24.21 4.742,34.78 3.164,10.56 7.906,19.64 14.234,27.21 6.325,7.57 14.27,13.49 23.836,17.74 9.563,4.26 20.746,6.39 33.547,6.39 5.426,0 10.922,-0.35 16.496,-1.06 5.571,-0.71 10.844,-1.77 15.817,-3.19 l -3.164,-27.92 c -10.246,3.15 -20.485,4.73 -30.727,4.73 -7.082,0 -13.297,-1.35 -18.641,-4.03 -5.343,-2.68 -9.793,-6.38 -13.328,-11.12 -3.543,-4.73 -6.179,-10.37 -7.91,-16.91 -1.73,-6.55 -2.594,-13.69 -2.594,-21.42 0,-17.51 3.536,-30.92 10.618,-40.22 7.078,-9.31 18.375,-13.96 33.886,-13.96 4.668,0 9.789,0.62 15.368,1.89 5.566,1.26 10.316,2.84 14.234,4.73 l 3.387,-27.45 c -5.727,-2.21 -11.903,-3.94 -18.528,-5.2"
         style="fill:#41aec7;fill-opacity:1;fill-rule:nonzero;stroke:none"
         id="path62" />
      <path
         d="m 1000.25,1001.19 v 69.33 h -64.617 v -69.33 h -29.371 v 159.71 h 29.371 v -63.88 h 64.617 v 63.88 h 29.37 v -159.71 h -29.37"
         style="fill:#41aec7;fill-opacity:1;fill-rule:nonzero;stroke:none"
         id="path64" />
      <path
         d="m 1127.45,1100.09 c -1.51,4.42 -2.83,8.64 -3.95,12.66 -1.13,4.02 -2.15,8.32 -3.05,12.9 h -0.23 c -1.81,-8.53 -4.22,-17.44 -7.23,-26.74 l -13.78,-40.7 h 42.47 z m 32.53,-98.9 -10.61,32.65 h -57.62 l -10.62,-32.65 h -29.59 l 53.32,159.71 h 33.21 l 54.45,-159.71 h -32.54"
         style="fill:#41aec7;fill-opacity:1;fill-rule:nonzero;stroke:none"
         id="path66" />
      <path
         d="m 1319.63,1014.32 c -11.05,-10.5 -26.57,-15.742 -46.57,-15.742 -12.02,0 -21.83,1.572 -29.42,4.692 -7.59,3.12 -13.57,7.34 -17.93,12.66 -4.37,5.31 -7.37,11.48 -9.03,18.5 -1.65,7.02 -2.48,14.32 -2.48,21.88 v 104.35 h 29.38 v -102.45 c 0,-5.05 0.45,-9.66 1.35,-13.84 0.91,-4.18 2.56,-7.81 4.98,-10.89 2.4,-3.07 5.64,-5.44 9.71,-7.09 4.07,-1.66 9.26,-2.49 15.59,-2.49 11.3,0 19.46,2.8 24.51,8.4 5.04,5.6 7.57,15.18 7.57,28.75 v 99.61 h 28.92 v -97.72 c 0,-21.92 -5.53,-38.13 -16.58,-48.62"
         style="fill:#41aec7;fill-opacity:1;fill-rule:nonzero;stroke:none"
         id="path68" />
      <path
         d="m 1462.28,1050.73 c 0,-7.59 -1.39,-14.54 -4.18,-20.86 -2.78,-6.32 -6.77,-11.82 -11.96,-16.47 -5.2,-4.67 -11.52,-8.3 -18.98,-10.91 -7.45,-2.599 -15.84,-3.912 -25.17,-3.912 -5.43,0 -10.77,0.32 -16.04,0.953 -5.27,0.629 -10.31,1.579 -15.13,2.839 l 1.81,28.63 c 4.36,-1.58 9.37,-2.92 15.01,-4.02 5.64,-1.11 11.25,-1.66 16.82,-1.66 7.53,0 13.81,1.66 18.85,4.97 5.04,3.31 7.57,8.67 7.57,16.09 0,5.04 -1.58,9.07 -4.75,12.07 -3.16,2.99 -7.12,5.6 -11.86,7.81 -4.74,2.2 -9.87,4.37 -15.36,6.5 -5.5,2.13 -10.62,4.89 -15.36,8.28 -4.75,3.39 -8.7,7.77 -11.87,13.14 -3.16,5.35 -4.74,12.46 -4.74,21.29 0,7.1 1.33,13.61 3.98,19.52 2.66,5.92 6.49,10.97 11.49,15.14 5.01,4.18 11.1,7.46 18.27,9.82 7.18,2.37 15.36,3.55 24.55,3.55 4.37,0 8.92,-0.27 13.67,-0.82 4.74,-0.54 9.37,-1.21 13.89,-1.99 l -1.58,-26.76 c -4.37,1.26 -8.85,2.28 -13.44,3.07 -4.6,0.79 -9.23,1.19 -13.9,1.19 -8.58,0 -14.98,-1.82 -19.2,-5.46 -4.22,-3.63 -6.33,-8.29 -6.33,-13.98 0,-4.74 1.58,-8.57 4.73,-11.49 3.15,-2.93 7.09,-5.54 11.82,-7.83 4.73,-2.29 9.87,-4.54 15.42,-6.75 5.55,-2.22 10.69,-5.06 15.42,-8.54 4.73,-3.47 8.67,-7.82 11.82,-13.03 3.15,-5.22 4.73,-12.01 4.73,-20.38"
         style="fill:#41aec7;fill-opacity:1;fill-rule:nonzero;stroke:none"
         id="path70" />
      <path
         d="m 1581.57,1050.73 c 0,-7.59 -1.39,-14.54 -4.18,-20.86 -2.78,-6.32 -6.77,-11.82 -11.96,-16.47 -5.2,-4.67 -11.52,-8.3 -18.98,-10.91 -7.45,-2.599 -15.84,-3.912 -25.17,-3.912 -5.43,0 -10.77,0.32 -16.04,0.953 -5.27,0.629 -10.31,1.579 -15.13,2.839 l 1.81,28.63 c 4.36,-1.58 9.37,-2.92 15.01,-4.02 5.64,-1.11 11.25,-1.66 16.82,-1.66 7.53,0 13.81,1.66 18.85,4.97 5.04,3.31 7.57,8.67 7.57,16.09 0,5.04 -1.58,9.07 -4.75,12.07 -3.16,2.99 -7.12,5.6 -11.86,7.81 -4.74,2.2 -9.87,4.37 -15.36,6.5 -5.5,2.13 -10.62,4.89 -15.36,8.28 -4.75,3.39 -8.7,7.77 -11.87,13.14 -3.16,5.35 -4.74,12.46 -4.74,21.29 0,7.1 1.33,13.61 3.98,19.52 2.66,5.92 6.49,10.97 11.49,15.14 5.01,4.18 11.1,7.46 18.27,9.82 7.18,2.37 15.36,3.55 24.55,3.55 4.37,0 8.92,-0.27 13.67,-0.82 4.74,-0.54 9.37,-1.21 13.89,-1.99 l -1.58,-26.76 c -4.37,1.26 -8.85,2.28 -13.44,3.07 -4.6,0.79 -9.23,1.19 -13.9,1.19 -8.58,0 -14.98,-1.82 -19.2,-5.46 -4.22,-3.63 -6.33,-8.29 -6.33,-13.98 0,-4.74 1.58,-8.57 4.73,-11.49 3.15,-2.93 7.09,-5.54 11.82,-7.83 4.73,-2.29 9.87,-4.54 15.42,-6.75 5.55,-2.22 10.69,-5.06 15.42,-8.54 4.73,-3.47 8.67,-7.82 11.82,-13.03 3.15,-5.22 4.73,-12.01 4.73,-20.38"
         style="fill:#41aec7;fill-opacity:1;fill-rule:nonzero;stroke:none"
         id="path72" />
      <path
         d="m 1643.25,1171.31 -9.94,17.27 39.53,26.03 11.98,-20.82 z m -30.96,-170.12 v 159.71 h 82.93 v -25.79 h -53.55 v -39.04 h 50.83 v -25.32 h -50.83 v -43.3 h 53.55 v -26.26 h -82.93"
         style="fill:#41aec7;fill-opacity:1;fill-rule:nonzero;stroke:none"
         id="path74" />
      <path
         d="m 1729.33,1001.19 v 159.71 h 82.92 v -25.79 h -53.55 v -39.04 h 50.83 v -25.32 h -50.83 v -43.3 h 53.55 v -26.26 h -82.92"
         style="fill:#41aec7;fill-opacity:1;fill-rule:nonzero;stroke:none"
         id="path76" />
      <path
         d="m 1934.93,1050.73 c 0,-7.59 -1.4,-14.54 -4.18,-20.86 -2.79,-6.32 -6.78,-11.82 -11.97,-16.47 -5.2,-4.67 -11.52,-8.3 -18.97,-10.91 -7.45,-2.599 -15.84,-3.912 -25.18,-3.912 -5.42,0 -10.77,0.32 -16.03,0.953 -5.28,0.629 -10.32,1.579 -15.13,2.839 l 1.8,28.63 c 4.37,-1.58 9.37,-2.92 15.02,-4.02 5.64,-1.11 11.25,-1.66 16.82,-1.66 7.52,0 13.81,1.66 18.85,4.97 5.04,3.31 7.56,8.67 7.56,16.09 0,5.04 -1.58,9.07 -4.74,12.07 -3.16,2.99 -7.12,5.6 -11.86,7.81 -4.75,2.2 -9.87,4.37 -15.37,6.5 -5.5,2.13 -10.62,4.89 -15.36,8.28 -4.75,3.39 -8.7,7.77 -11.86,13.14 -3.17,5.35 -4.75,12.46 -4.75,21.29 0,7.1 1.33,13.61 3.99,19.52 2.65,5.92 6.48,10.97 11.48,15.14 5.01,4.18 11.1,7.46 18.28,9.82 7.17,2.37 15.35,3.55 24.54,3.55 4.37,0 8.93,-0.27 13.67,-0.82 4.75,-0.54 9.38,-1.21 13.9,-1.99 l -1.59,-26.76 c -4.37,1.26 -8.84,2.28 -13.44,3.07 -4.59,0.79 -9.22,1.19 -13.89,1.19 -8.59,0 -14.99,-1.82 -19.21,-5.46 -4.21,-3.63 -6.32,-8.29 -6.32,-13.98 0,-4.74 1.57,-8.57 4.72,-11.49 3.16,-2.93 7.1,-5.54 11.82,-7.83 4.73,-2.29 9.87,-4.54 15.43,-6.75 5.55,-2.22 10.69,-5.06 15.42,-8.54 4.72,-3.47 8.66,-7.82 11.81,-13.03 3.16,-5.22 4.74,-12.01 4.74,-20.38"
         style="fill:#41aec7;fill-opacity:1;fill-rule:nonzero;stroke:none"
         id="path78" />
      <path
         d="m 669.758,452.262 c -66.563,45.797 -102.43,70.25 -136.078,95.25 -16.196,-26.75 -25.524,-58.121 -25.524,-91.672 0,-60.86 30.684,-114.531 77.407,-146.449 19.468,38.371 45.632,81.097 84.195,142.871"
         style="fill:#231f20;fill-opacity:1;fill-rule:nonzero;stroke:none"
         id="path80" />
      <path
         d="M 844.063,416.91 C 816.652,387.82 772.75,383.551 741.32,403.359 c -6.058,3.821 -49.359,33.68 -49.359,33.68 -47.84,-67.559 -72.414,-101.508 -98.809,-132.559 26.871,-16.421 58.45,-25.878 92.243,-25.878 95.027,0 172.574,74.789 177.019,168.718 -3.855,-11.308 -10.168,-21.789 -18.351,-30.41"
         style="fill:#231f20;fill-opacity:1;fill-rule:nonzero;stroke:none"
         id="path82" />
      <path
         d="m 811.309,516.738 c -5.903,3.891 -43.895,29.172 -43.895,29.172 -31.117,-45.89 -36.008,-52.629 -59.797,-86.699 0,0 41.356,-26.77 47.317,-30.441 21.406,-13.2 49.804,-9.258 66.464,9.289 6.418,7.132 10.977,15.972 12.715,25.312 3.325,17.231 -2.172,39.801 -22.804,53.367"
         style="fill:#231f20;fill-opacity:1;fill-rule:nonzero;stroke:none"
         id="path84" />
      <path
         d="m 683.715,474.609 c 22.488,35.821 42.777,67.743 74.719,115.969 0,0 66.984,-44.168 72.945,-48.418 7.055,-5.019 12.156,-10.051 16.23,-14.922 -27.468,62.321 -89.746,105.832 -162.214,105.832 -57.762,0 -109.051,-27.64 -141.411,-70.398 35.68,-21.16 78.305,-48.57 139.731,-88.063"
         style="fill:#231f20;fill-opacity:1;fill-rule:nonzero;stroke:none"
         id="path86" />
      <path
         d="m 517.809,583.461 c 0.043,12.34 -9.926,22.391 -22.27,22.43 -12.344,0.039 -22.387,-9.93 -22.43,-22.27 -0.043,-12.351 9.93,-22.391 22.274,-22.43 12.344,-0.043 22.383,9.93 22.426,22.27"
         style="fill:#231f20;fill-opacity:1;fill-rule:nonzero;stroke:none"
         id="path88" />
      <path
         d="m 553.559,641.961 c 3.55,2.527 4.343,6.098 2.355,8.879 l -0.055,0.082 c -2.238,3.129 -5.66,3.156 -9.171,0.648 l -5.458,-3.898 6.875,-9.613 z m -20.075,6.629 10.532,7.531 c 6.218,4.438 12.687,3.699 16.531,-1.68 l 0.055,-0.07 c 4.281,-5.992 1.711,-12.562 -4.164,-16.762 l -5.305,-3.789 6.133,-8.582 -4.692,-3.359 -19.09,26.711"
         style="fill:#231f20;fill-opacity:1;fill-rule:nonzero;stroke:none"
         id="path90" />
      <path
         d="m 603.023,669.398 -0.035,0.09 c -2.578,5.84 -8.968,8.813 -14.933,6.172 -5.965,-2.629 -8.024,-9.23 -5.446,-15.07 l 0.039,-0.078 c 2.579,-5.84 8.965,-8.813 14.93,-6.184 5.969,2.641 8.024,9.242 5.445,15.07 z m -25.875,-11.429 -0.039,0.09 c -3.734,8.453 -0.336,18.421 8.887,22.492 9.227,4.078 18.754,-0.082 22.488,-8.531 l 0.039,-0.079 c 3.735,-8.461 0.34,-18.421 -8.886,-22.5 -9.227,-4.07 -18.754,0.079 -22.489,8.528"
         style="fill:#231f20;fill-opacity:1;fill-rule:nonzero;stroke:none"
         id="path92" />
      <path
         d="m 622.473,692.941 5.632,1.231 5.907,-26.934 16.859,3.692 1.125,-5.129 -22.496,-4.93 -7.027,32.07"
         style="fill:#231f20;fill-opacity:1;fill-rule:nonzero;stroke:none"
         id="path94" />
      <path
         d="m 668.887,680.391 -14.196,19.089 6.793,0.399 10.036,-13.981 8.418,15.071 6.601,0.39 -11.855,-20.488 0.773,-13.062 -5.809,-0.348 -0.761,12.93"
         style="fill:#231f20;fill-opacity:1;fill-rule:nonzero;stroke:none"
         id="path96" />
      <path
         d="m 710.074,694.219 -10.344,1.203 0.618,5.308 26.457,-3.058 -0.614,-5.313 -10.339,1.192 -3.161,-27.301 -5.777,0.672 3.16,27.297"
         style="fill:#231f20;fill-opacity:1;fill-rule:nonzero;stroke:none"
         id="path98" />
      <path
         d="m 746.379,693.391 23.273,-7.141 -1.511,-4.93 -17.758,5.45 -2.504,-8.161 15.738,-4.828 -1.512,-4.929 -15.742,4.828 -2.586,-8.43 17.981,-5.52 -1.512,-4.929 -23.496,7.211 9.629,31.379"
         style="fill:#231f20;fill-opacity:1;fill-rule:nonzero;stroke:none"
         id="path100" />
      <path
         d="m 781.02,663.879 0.046,0.09 c 4.426,8.211 14.204,11.633 22.957,6.91 5.329,-2.867 7.547,-6.469 8.887,-10.598 l -5.285,-2 c -1.152,3.391 -2.852,6.168 -6.152,7.949 -5.535,2.989 -11.989,0.598 -15.039,-5.05 l -0.043,-0.09 c -3.047,-5.649 -1.536,-12.43 4,-15.418 3.547,-1.91 6.593,-1.692 10.32,-0.711 l 1.48,-5.063 c -4.707,-1.507 -9.078,-1.718 -14.484,1.204 -8.422,4.539 -11.16,14.476 -6.687,22.777"
         style="fill:#231f20;fill-opacity:1;fill-rule:nonzero;stroke:none"
         id="path102" />
      <path
         d="m 832.172,652.488 4.422,-3.699 -8.77,-10.469 12.012,-10.058 8.769,10.457 4.426,-3.699 -21.097,-25.18 -4.422,3.711 8.89,10.609 -12.011,10.059 -8.891,-10.61 -4.422,3.711 21.094,25.168"
         style="fill:#231f20;fill-opacity:1;fill-rule:nonzero;stroke:none"
         id="path104" />
      <path
         d="m 870.508,616.898 3.273,-4.218 -7.179,-27.801 17.945,13.891 3.469,-4.481 -25.953,-20.098 -2.958,3.821 7.387,28.609 -18.465,-14.301 -3.472,4.489 25.953,20.089"
         style="fill:#231f20;fill-opacity:1;fill-rule:nonzero;stroke:none"
         id="path106" />
      <path
         d="m 899.375,575.27 2.758,-5.071 -28.824,-15.699 -2.758,5.059 28.824,15.711"
         style="fill:#231f20;fill-opacity:1;fill-rule:nonzero;stroke:none"
         id="path108" />
      <path
         d="m 894.012,521.352 2.699,6.878 5.195,-2.128 -3.035,-7.051 c 2.004,-0.5 4.184,-0.352 6.356,0.398 l 0.089,0.031 c 6.036,2.071 9.543,8.192 7.422,14.352 -2.113,6.168 -8.519,8.777 -14.554,6.707 l -0.086,-0.027 c -6.035,-2.071 -9.539,-8.192 -7.422,-14.352 0.703,-2.039 1.902,-3.672 3.336,-4.808 z m -2.207,-5.27 c -2.762,1.977 -4.922,4.797 -6.172,8.438 -3.278,9.539 1.668,18.679 10.41,21.679 l 0.09,0.031 c 8.738,3 18.375,-1.23 21.652,-10.769 3.278,-9.531 -1.672,-18.672 -10.414,-21.672 l -0.086,-0.027 c -3.508,-1.211 -7.215,-1.242 -10.617,-0.133 l -1.805,-4.578 -5.109,2.16 2.051,4.871"
         style="fill:#231f20;fill-opacity:1;fill-rule:nonzero;stroke:none"
         id="path110" />
      <path
         d="m 908.422,496.09 18.769,2.211 0.672,-5.731 -18.539,-2.179 c -6.058,-0.719 -8.949,-4.219 -8.347,-9.34 0.597,-5.082 4.039,-7.84 10.05,-7.129 l 18.77,2.199 0.672,-5.73 -18.492,-2.172 c -9.735,-1.149 -15.274,3.769 -16.278,12.301 -0.992,8.48 3.262,14.46 12.723,15.57"
         style="fill:#231f20;fill-opacity:1;fill-rule:nonzero;stroke:none"
         id="path112" />
      <path
         d="m 930.664,448.191 -1.871,-24.281 -5.145,0.399 1.426,18.519 -8.511,0.66 -1.266,-16.418 -5.145,0.391 1.262,16.418 -8.793,0.68 -1.445,-18.758 -5.145,0.398 1.891,24.512 32.742,-2.52"
         style="fill:#231f20;fill-opacity:1;fill-rule:nonzero;stroke:none"
         id="path114" />
      <path
         d="m 545.734,254.289 -4.707,3.34 19.012,26.781 4.707,-3.34 -19.012,-26.781"
         style="fill:#231f20;fill-opacity:1;fill-rule:nonzero;stroke:none"
         id="path116" />
      <path
         d="m 521.551,272.879 -3.77,3.793 3.707,28.469 -16.101,-16 -3.996,4.031 23.285,23.129 3.402,-3.422 -3.808,-29.297 16.57,16.457 3.996,-4.027 -23.285,-23.133"
         style="fill:#231f20;fill-opacity:1;fill-rule:nonzero;stroke:none"
         id="path118" />
      <path
         d="m 511.402,325.281 -5.355,0.629 c 0.543,4.121 0.105,7.602 -2.137,11.012 -1.961,2.969 -4.57,3.949 -6.644,2.578 l -0.078,-0.051 c -1.961,-1.289 -2.297,-3.078 -0.118,-8.949 2.434,-6.762 2.879,-11.191 -2.172,-14.52 l -0.082,-0.05 c -4.699,-3.102 -10.531,-1.321 -14.117,4.129 -2.629,3.992 -3.504,7.961 -3.105,12.211 l 5.347,-0.18 c -0.218,-3.68 0.43,-6.789 2.082,-9.301 1.856,-2.82 4.387,-3.508 6.192,-2.32 l 0.078,0.051 c 2.113,1.39 2.23,3.261 0.023,9.332 -2.406,6.726 -2.316,11.117 2.227,14.109 l 0.078,0.051 c 5.129,3.379 10.844,1.359 14.637,-4.403 2.758,-4.187 3.914,-9.097 3.144,-14.328"
         style="fill:#231f20;fill-opacity:1;fill-rule:nonzero;stroke:none"
         id="path120" />
      <path
         d="m 466.355,358.238 4.114,-9.566 -4.914,-2.113 -10.524,24.48 4.914,2.109 4.114,-9.566 25.254,10.859 2.296,-5.351 -25.254,-10.852"
         style="fill:#231f20;fill-opacity:1;fill-rule:nonzero;stroke:none"
         id="path122" />
      <path
         d="m 449.621,388.809 -1.508,5.57 31.7,8.59 1.507,-5.578 -31.699,-8.582"
         style="fill:#231f20;fill-opacity:1;fill-rule:nonzero;stroke:none"
         id="path124" />
      <path
         d="m 447.836,423.391 1.285,-10.332 -5.305,-0.661 -3.296,26.442 5.308,0.66 1.289,-10.328 27.281,3.398 0.719,-5.781 -27.281,-3.398"
         style="fill:#231f20;fill-opacity:1;fill-rule:nonzero;stroke:none"
         id="path126" />
      <path
         d="m 458.754,456.531 -18.867,1.219 0.375,5.75 18.629,-1.199 c 6.086,-0.391 9.562,2.539 9.894,7.687 0.332,5.102 -2.558,8.434 -8.594,8.821 l -18.867,1.222 0.371,5.758 18.586,-1.199 c 9.782,-0.629 14.34,-6.469 13.789,-15.039 -0.55,-8.52 -5.812,-13.629 -15.316,-13.02"
         style="fill:#231f20;fill-opacity:1;fill-rule:nonzero;stroke:none"
         id="path128" />
      <path
         d="m 452.566,513.262 -2.621,-10.082 -5.175,1.34 6.703,25.789 5.175,-1.34 -2.617,-10.078 26.602,-6.922 -1.461,-5.629 -26.606,6.922"
         style="fill:#231f20;fill-opacity:1;fill-rule:nonzero;stroke:none"
         id="path130" />
      <path
         d="m 618.484,229.91 c 5.059,-1.441 8.914,-0.289 10.27,4.488 l 0.027,0.09 c 1.36,4.774 -1.312,7.782 -6.371,9.223 l -1.844,0.519 -3.925,-13.8 z m -6.234,27.11 12.668,-3.598 c 13.141,-3.742 17.867,-12.082 15.086,-21.871 l -0.027,-0.09 c -2.786,-9.789 -11.473,-14.82 -24.848,-11.02 l -12.293,3.5 9.414,33.079"
         style="fill:#231f20;fill-opacity:1;fill-rule:nonzero;stroke:none"
         id="path132" />
      <path
         d="m 660.922,245.488 29.308,-1.429 -0.46,-9.43 -18.016,0.883 -0.172,-3.481 16.789,-0.832 -0.406,-8.289 -16.789,0.82 -0.184,-3.73 18.262,-0.898 -0.461,-9.422 -29.555,1.441 1.684,34.367"
         style="fill:#231f20;fill-opacity:1;fill-rule:nonzero;stroke:none"
         id="path134" />
      <path
         d="m 752.551,237.551 c 2.82,0.859 4.308,2.699 3.594,5.051 l -0.032,0.097 c -0.73,2.391 -2.843,3.082 -5.758,2.192 l -3.007,-0.922 2.242,-7.321 z m -18.879,11.847 14.797,4.524 c 8.742,2.668 15.902,0.598 18.285,-7.203 l 0.027,-0.09 c 2.426,-7.949 -2.34,-14.027 -11.222,-16.738 l -3.571,-1.09 2.727,-8.93 -10.992,-3.359 -10.051,32.886"
         style="fill:#231f20;fill-opacity:1;fill-rule:nonzero;stroke:none"
         id="path136" />
      <path
         d="m 803.355,254.641 -6.863,5.718 1.395,-8.828 z m -18.414,14.699 9.914,5.64 29.735,-22.968 -10.86,-6.172 -3.863,3.121 -10.472,-5.949 0.746,-4.903 -10.688,-6.07 -4.512,37.301"
         style="fill:#231f20;fill-opacity:1;fill-rule:nonzero;stroke:none"
         id="path138" />
      <path
         d="m 841.648,289.852 c 2.012,1.878 2.399,3.918 0.957,5.457 l -0.07,0.07 c -1.508,1.621 -3.504,1.242 -5.445,-0.57 l -3.664,-3.418 4.594,-4.93 z m -23.207,0.726 12.289,11.473 c 4.458,4.16 8.336,5.699 11.743,5.578 2.918,-0.098 5.453,-1.231 7.867,-3.82 l 0.066,-0.071 c 3.422,-3.668 3.899,-8 2.219,-12.316 l 13.84,-3.094 -9.594,-8.949 -11.453,2.762 -0.074,-0.071 -1.723,-1.609 6.707,-7.191 -8.406,-7.848 -23.481,25.156"
         style="fill:#231f20;fill-opacity:1;fill-rule:nonzero;stroke:none"
         id="path140" />
      <path
         d="m 852.906,326.379 6.801,9.269 27.746,-20.339 -6.797,-9.27 -27.75,20.34"
         style="fill:#231f20;fill-opacity:1;fill-rule:nonzero;stroke:none"
         id="path142" />
      <path
         d="m 894.645,335.211 -3.895,8.73 c 4.195,2.11 7.129,5.438 8.891,9.059 0.902,1.859 0.804,2.891 -0.036,3.301 l -0.089,0.039 c -0.883,0.43 -1.84,-0.309 -4.118,-3.301 -4.793,-6.25 -9.746,-11.379 -16.285,-8.199 l -0.09,0.051 c -5.878,2.859 -8.195,9.668 -4.043,18.199 2.903,5.961 6.465,9.691 11.036,11.898 l 4.535,-8.437 c -3.543,-1.879 -6.168,-4.922 -7.567,-7.801 -0.754,-1.539 -0.566,-2.512 0.184,-2.871 l 0.09,-0.039 c 0.84,-0.41 1.777,0.172 3.988,3.14 5.309,7.2 10.188,11.379 16.414,8.352 l 0.09,-0.043 c 6.5,-3.16 7.871,-10.449 3.828,-18.75 -3.051,-6.277 -7.57,-11.078 -12.933,-13.328"
         style="fill:#231f20;fill-opacity:1;fill-rule:nonzero;stroke:none"
         id="path144" />
      <path
         d="m 1029.02,531.73 h 33.33 V 380.219 h -33.33 V 531.73"
         style="fill:#231f20;fill-opacity:1;fill-rule:nonzero;stroke:none"
         id="path146" />
      <path
         d="m 1186.4,455.328 h -26.41 v 46.32 h 25.76 c 16.67,0 27.05,-8.226 27.05,-23.16 0,-12.988 -9.74,-23.16 -26.4,-23.16 z m 2.17,76.402 h -61.91 V 380.219 h 33.33 v 45.461 h 25.33 c 33.98,0 61.25,18.398 61.25,53.461 0,30.949 -21.86,52.589 -58,52.589"
         style="fill:#231f20;fill-opacity:1;fill-rule:nonzero;stroke:none"
         id="path148" />
      <path
         d="m 1414.8,455.328 h -26.41 v 46.32 h 25.76 c 16.67,0 27.05,-8.226 27.05,-23.16 0,-12.988 -9.74,-23.16 -26.4,-23.16 z m 2.17,76.402 h -61.91 V 380.219 h 33.33 v 45.461 h 25.33 c 33.98,0 61.25,18.398 61.25,53.461 0,30.949 -21.86,52.589 -58,52.589"
         style="fill:#231f20;fill-opacity:1;fill-rule:nonzero;stroke:none"
         id="path150" />
      <path
         d="m 1593.17,443.641 -20.13,49.129 -20.13,-49.129 z m -35.07,89.179 h 30.74 l 64.93,-152.601 h -34.85 l -13.85,33.98 H 1541 l -13.85,-33.98 h -33.98 l 64.93,152.601"
         style="fill:#231f20;fill-opacity:1;fill-rule:nonzero;stroke:none"
         id="path152" />
      <path
         d="m 1762.66,458.141 c 16.23,0 25.54,8.66 25.54,21.429 V 480 c 0,14.289 -9.96,21.648 -26.19,21.648 h -33.12 v -43.507 z m -67.1,73.589 h 69.26 c 19.27,0 34.2,-5.41 44.16,-15.371 8.44,-8.437 12.99,-20.339 12.99,-34.629 v -0.429 c 0,-24.461 -13.21,-39.821 -32.47,-46.973 l 37.01,-54.109 h -38.96 l -32.47,48.492 h -0.43 -25.76 v -48.492 h -33.33 V 531.73"
         style="fill:#231f20;fill-opacity:1;fill-rule:nonzero;stroke:none"
         id="path154" />
      <path
         d="m 1878.53,531.73 h 33.33 V 380.219 h -33.33 V 531.73"
         style="fill:#231f20;fill-opacity:1;fill-rule:nonzero;stroke:none"
         id="path156" />
      <path
         d="m 2032.88,470.91 c -26.19,6.711 -32.69,10.18 -32.69,20.129 0,7.359 6.71,13.422 19.48,13.422 12.77,0 25.98,-5.629 39.39,-14.93 l 17.32,25.11 c -15.36,12.328 -34.2,19.257 -56.28,19.257 -30.94,0 -53.02,-18.398 -53.02,-45.886 0,-30.082 19.69,-38.75 50.21,-46.532 25.32,-6.5 30.52,-11.039 30.52,-19.48 0,-8.879 -8.22,-14.5 -21.86,-14.5 -17.32,0 -31.6,7.129 -45.24,18.391 l -19.7,-23.59 c 18.19,-16.231 41.35,-24.242 64.29,-24.242 32.68,0 55.62,17.089 55.62,47.179 0,26.41 -17.31,37.672 -48.04,45.672"
         style="fill:#231f20;fill-opacity:1;fill-rule:nonzero;stroke:none"
         id="path158" />
      <path
         d="M 2075.32,827.949 H 442.094 v 14.11 H 2075.32 v -14.11"
         style="fill:#231f20;fill-opacity:1;fill-rule:nonzero;stroke:none"
         id="path160" />
    </g>
  </g>
</svg>
