<?xml version="1.0" encoding="UTF-8" standalone="no"?>
<svg
   xmlns:dc="http://purl.org/dc/elements/1.1/"
   xmlns:cc="http://creativecommons.org/ns#"
   xmlns:rdf="http://www.w3.org/1999/02/22-rdf-syntax-ns#"
   xmlns:svg="http://www.w3.org/2000/svg"
   xmlns="http://www.w3.org/2000/svg"
   viewBox="0 0 336.108 427.65332"
   height="427.65332"
   width="336.108"
   xml:space="preserve"
   id="svg2"
   version="1.1"><metadata
     id="metadata8"><rdf:RDF><cc:Work
         rdf:about=""><dc:format>image/svg+xml</dc:format><dc:type
           rdf:resource="http://purl.org/dc/dcmitype/StillImage" /></cc:Work></rdf:RDF></metadata><defs
     id="defs6"><clipPath
       id="clipPath26"
       clipPathUnits="userSpaceOnUse"><path
         id="path24"
         d="M 0,320.74 H 252.081 V 0 H 0 Z" /></clipPath></defs><g
     transform="matrix(1.3333333,0,0,-1.3333333,0,427.65333)"
     id="g10"><g
       transform="translate(191.3412,187.0712)"
       id="g12"><path
         id="path14"
         style="fill:#7d7e82;fill-opacity:1;fill-rule:nonzero;stroke:none"
         d="m 0,0 -62.496,108.255 -2.569,4.446 -2.571,-4.446 L -130.138,0 l -2.57,-4.455 H 2.569 Z m -33.272,1.483 -13.121,21.245 26.426,-0.01 0.019,-0.037 L -33.05,1.483 Z m -63.596,0 -13.185,21.352 26.47,-0.008 -13.202,-21.344 z m 31.949,1.247 -26.829,46.93 53.68,-0.017 z m 3.112,52.456 11.939,19.324 11.155,-19.324 z m -3.198,0.095 -13.232,21.422 26.47,-0.007 z m -3.204,-0.091 -23.209,0.003 11.217,19.424 z M -84.375,25.603 h -24.126 l 12.119,20.99 z m 2.765,-4.848 11.026,-19.272 h -22.938 z m 33.287,-0.182 11.795,-19.09 h -22.721 z m 2.818,4.923 11.913,20.82 12.025,-20.83 z m -19.56,75.339 12.333,-21.375 -24.669,0.011 z m -46.587,-80.688 11.53,-18.664 h -22.305 z M -29.798,1.483 -18.376,19.959 -7.709,1.483 Z" /></g><g
       transform="translate(60.082,167.7106)"
       id="g16"><path
         id="path18"
         style="fill:#11a8c7;fill-opacity:1;fill-rule:nonzero;stroke:none"
         d="M 0,0 -0.492,0.715 1.447,2.302 2.061,1.416 Z m -1.911,-10.41 v 9.652 h 4.737 v -1.087 h -3.481 v -3.06 h 3.317 v -1.058 h -3.317 v -3.346 h 3.481 v -1.101 z" /></g><g
       id="g20"><g
         clip-path="url(#clipPath26)"
         id="g22"><g
           transform="translate(68.8728,157.1865)"
           id="g28"><path
             id="path30"
             style="fill:#11a8c7;fill-opacity:1;fill-rule:nonzero;stroke:none"
             d="m 0,0 c -2.963,0 -4.191,1.973 -4.191,4.69 0,2.946 1.392,5.162 4.505,5.162 0.71,0 1.433,-0.115 2.089,-0.286 L 2.266,8.365 c -0.71,0.229 -1.392,0.343 -2.089,0.343 -2.102,0 -3.003,-1.687 -3.003,-3.804 0,-2.373 0.983,-3.732 3.126,-3.732 0.669,0 1.516,0.201 2.062,0.487 L 2.498,0.486 C 1.802,0.186 0.928,0 0,0" /></g><g
           transform="translate(76.6805,165.9373)"
           id="g32"><path
             id="path34"
             style="fill:#11a8c7;fill-opacity:1;fill-rule:nonzero;stroke:none"
             d="m 0,0 c -1.529,0 -2.894,-1.301 -2.894,-3.732 0,-2.302 0.928,-3.875 2.88,-3.875 1.502,0 2.922,1.258 2.922,3.746 C 2.908,-1.387 1.843,0 0,0 m -0.123,-8.779 c -2.771,0 -4.109,1.93 -4.109,4.861 0,3.217 1.966,5.076 4.368,5.076 2.485,0 4.11,-1.687 4.11,-4.861 0,-3.218 -1.966,-5.076 -4.369,-5.076" /></g><g
           transform="translate(82.8634,157.3009)"
           id="g36"><path
             id="path38"
             style="fill:#11a8c7;fill-opacity:1;fill-rule:nonzero;stroke:none"
             d="M 0,0 V 9.652 H 1.256 V 1.13 H 4.56 V 0 Z" /></g><g
           transform="translate(88.883,157.3009)"
           id="g40"><path
             id="path42"
             style="fill:#11a8c7;fill-opacity:1;fill-rule:nonzero;stroke:none"
             d="M 0,0 V 9.652 H 4.737 V 8.565 H 1.256 V 5.505 H 4.573 V 4.447 H 1.256 V 1.101 H 4.737 V 0 Z" /></g><g
           transform="translate(104.7998,157.3009)"
           id="g44"><path
             id="path46"
             style="fill:#11a8c7;fill-opacity:1;fill-rule:nonzero;stroke:none"
             d="m 0,0 -3.509,5.977 c -0.423,0.701 -0.75,1.358 -1.051,2.002 0.055,-1.03 0.096,-3.346 0.096,-4.876 V 0 h -1.229 v 9.652 h 1.652 L -0.615,3.861 C -0.205,3.174 0.177,2.431 0.519,1.745 0.464,2.931 0.423,5.305 0.423,6.906 V 9.652 H 1.638 L 1.638,0 Z" /></g><g
           transform="translate(112.3613,164.05)"
           id="g48"><path
             id="path50"
             style="fill:#11a8c7;fill-opacity:1;fill-rule:nonzero;stroke:none"
             d="M 0,0 C -0.177,0.486 -0.3,0.944 -0.409,1.444 H -0.437 C -0.546,0.972 -0.683,0.472 -0.86,-0.014 L -2.048,-3.446 H 1.201 Z M 2.307,-6.749 1.543,-4.49 H -2.375 L -3.14,-6.749 h -1.283 l 3.358,9.652 h 1.393 l 3.385,-9.652 z" /></g><g
           transform="translate(119.5276,165.8517)"
           id="g52"><path
             id="path54"
             style="fill:#11a8c7;fill-opacity:1;fill-rule:nonzero;stroke:none"
             d="M 0,0 V -8.551 H -1.256 V 0 H -3.905 V 1.101 H 2.662 V 0 Z" /></g><path
           id="path56"
           style="fill:#11a8c7;fill-opacity:1;fill-rule:nonzero;stroke:none"
           d="m 123.65,166.953 h 1.256 v -9.652 h -1.256 z" /><g
           transform="translate(131.0758,165.9373)"
           id="g58"><path
             id="path60"
             style="fill:#11a8c7;fill-opacity:1;fill-rule:nonzero;stroke:none"
             d="m 0,0 c -1.529,0 -2.895,-1.301 -2.895,-3.732 0,-2.302 0.929,-3.875 2.881,-3.875 1.502,0 2.922,1.258 2.922,3.746 C 2.908,-1.387 1.843,0 0,0 m -0.123,-8.779 c -2.772,0 -4.109,1.93 -4.109,4.861 0,3.217 1.966,5.076 4.368,5.076 2.485,0 4.109,-1.687 4.109,-4.861 0,-3.218 -1.965,-5.076 -4.368,-5.076" /></g><g
           transform="translate(142.9509,157.3009)"
           id="g62"><path
             id="path64"
             style="fill:#11a8c7;fill-opacity:1;fill-rule:nonzero;stroke:none"
             d="M 0,0 -3.508,5.977 C -3.932,6.678 -4.259,7.335 -4.56,7.979 -4.505,6.949 -4.464,4.633 -4.464,3.103 V 0 h -1.228 v 9.652 h 1.651 L -0.614,3.861 C -0.205,3.174 0.178,2.431 0.519,1.745 0.465,2.931 0.424,5.305 0.424,6.906 V 9.652 H 1.639 V 0 Z" /></g><g
           transform="translate(150.5126,164.05)"
           id="g66"><path
             id="path68"
             style="fill:#11a8c7;fill-opacity:1;fill-rule:nonzero;stroke:none"
             d="M 0,0 C -0.178,0.486 -0.3,0.944 -0.41,1.444 H -0.437 C -0.546,0.972 -0.683,0.472 -0.86,-0.014 l -1.188,-3.432 h 3.25 z M 2.307,-6.749 1.543,-4.49 H -2.375 L -3.14,-6.749 h -1.283 l 3.358,9.652 h 1.393 l 3.385,-9.652 z" /></g><g
           transform="translate(155.7132,157.3009)"
           id="g70"><path
             id="path72"
             style="fill:#11a8c7;fill-opacity:1;fill-rule:nonzero;stroke:none"
             d="M 0,0 V 9.652 H 1.256 V 1.13 H 4.56 V 0 Z" /></g><g
           transform="translate(161.733,157.3009)"
           id="g74"><path
             id="path76"
             style="fill:#11a8c7;fill-opacity:1;fill-rule:nonzero;stroke:none"
             d="M 0,0 V 9.652 H 4.737 V 8.565 H 1.256 V 5.505 H 4.573 V 4.447 H 1.256 V 1.101 H 4.737 V 0 Z" /></g><g
           transform="translate(174.5911,165.9231)"
           id="g78"><path
             id="path80"
             style="fill:#11a8c7;fill-opacity:1;fill-rule:nonzero;stroke:none"
             d="m 0,0 c -0.478,0 -1.037,-0.029 -1.379,-0.043 v -7.435 c 0.342,-0.058 0.847,-0.086 1.215,-0.086 2.157,0 3.672,1.172 3.672,3.789 C 3.508,-1.315 2.389,0 0,0 m -0.3,-8.68 c -0.929,0 -1.652,0.058 -2.335,0.058 v 9.637 c 0.71,0.014 1.748,0.057 2.758,0.057 2.949,0 4.71,-1.444 4.71,-4.761 0,-3.303 -2.116,-4.991 -5.133,-4.991" /></g><g
           transform="translate(181.4158,157.3009)"
           id="g82"><path
             id="path84"
             style="fill:#11a8c7;fill-opacity:1;fill-rule:nonzero;stroke:none"
             d="M 0,0 V 9.652 H 4.737 V 8.565 H 1.256 V 5.505 H 4.573 V 4.447 H 1.256 V 1.101 H 4.737 V 0 Z" /></g><g
           transform="translate(190.0155,157.1721)"
           id="g86"><path
             id="path88"
             style="fill:#11a8c7;fill-opacity:1;fill-rule:nonzero;stroke:none"
             d="m 0,0 c -0.669,0 -1.324,0.086 -1.857,0.229 l 0.068,1.258 c 0.533,-0.2 1.256,-0.357 1.898,-0.357 1.106,0 2.021,0.472 2.021,1.658 0,2.174 -4.151,1.316 -4.151,4.39 0,1.587 1.202,2.731 3.277,2.731 0.559,0 1.119,-0.057 1.665,-0.171 L 2.853,8.565 C 2.321,8.722 1.734,8.823 1.188,8.823 -0.068,8.823 -0.724,8.222 -0.724,7.321 -0.724,5.233 3.44,5.991 3.44,2.974 3.44,1.244 2.143,0 0,0" /></g><g
           transform="translate(69.9295,141.1284)"
           id="g90"><path
             id="path92"
             style="fill:#11a8c7;fill-opacity:1;fill-rule:nonzero;stroke:none"
             d="M 0,0 C 0,1.207 -0.379,2.165 -1.137,2.875 -1.895,3.585 -3.094,3.94 -4.735,3.94 H -5.61 c -0.287,0 -0.566,-0.013 -0.839,-0.036 v -7.986 c 0.472,-0.071 0.944,-0.106 1.416,-0.106 1.491,0.023 2.703,0.402 3.635,1.136 C -0.466,-2.319 0,-1.301 0,0 M 4.995,0.319 C 4.995,-0.84 4.772,-1.929 4.326,-2.946 3.88,-3.963 3.23,-4.845 2.375,-5.59 1.521,-6.335 0.487,-6.921 -0.727,-7.347 -1.941,-7.773 -3.303,-7.986 -4.814,-7.986 h -0.762 c -0.285,0 -0.576,0.023 -0.873,0.071 v -8.447 h -4.846 V 7.595 c 1.041,0.048 2.113,0.083 3.216,0.107 1.104,0.023 2.276,0.035 3.516,0.035 3.099,0 5.466,-0.645 7.103,-1.934 1.637,-1.29 2.455,-3.118 2.455,-5.484" /></g><g
           transform="translate(102.8466,136.7275)"
           id="g94"><path
             id="path96"
             style="fill:#11a8c7;fill-opacity:1;fill-rule:nonzero;stroke:none"
             d="m 0,0 c 0,2.673 -0.572,4.714 -1.715,6.122 -1.143,1.408 -2.809,2.112 -4.995,2.112 -0.871,0 -1.709,-0.166 -2.517,-0.497 -0.807,-0.331 -1.516,-0.828 -2.125,-1.49 -0.609,-0.663 -1.099,-1.497 -1.472,-2.503 -0.373,-1.006 -0.559,-2.182 -0.559,-3.531 0,-1.278 0.13,-2.431 0.391,-3.461 0.261,-1.029 0.665,-1.905 1.212,-2.626 0.546,-0.722 1.236,-1.284 2.069,-1.686 0.832,-0.403 1.808,-0.603 2.926,-0.603 0.82,0 1.634,0.153 2.442,0.461 0.807,0.308 1.534,0.793 2.181,1.455 0.646,0.663 1.168,1.509 1.566,2.538 C -0.199,-2.68 0,-1.444 0,0 m 5.182,0.355 c 0,-1.988 -0.324,-3.762 -0.97,-5.324 -0.646,-1.562 -1.522,-2.892 -2.628,-3.993 -1.106,-1.1 -2.404,-1.94 -3.895,-2.52 -1.492,-0.58 -3.095,-0.869 -4.809,-0.869 -1.914,0 -3.592,0.278 -5.033,0.834 -1.442,0.555 -2.635,1.36 -3.579,2.413 -0.944,1.053 -1.653,2.325 -2.125,3.816 -0.472,1.49 -0.708,3.158 -0.708,5.004 0,1.988 0.323,3.762 0.969,5.324 0.646,1.561 1.529,2.886 2.647,3.975 1.119,1.088 2.423,1.922 3.914,2.502 1.492,0.58 3.082,0.87 4.772,0.87 1.665,0 3.2,-0.243 4.604,-0.728 C -0.255,11.174 0.956,10.435 1.976,9.441 2.995,8.447 3.784,7.199 4.343,5.696 4.902,4.194 5.182,2.413 5.182,0.355" /></g><g
           transform="translate(133.6758,124.7665)"
           id="g98"><path
             id="path100"
             style="fill:#11a8c7;fill-opacity:1;fill-rule:nonzero;stroke:none"
             d="m 0,0 -7.381,12.103 c -0.573,0.899 -1.076,1.786 -1.51,2.662 -0.436,0.875 -0.839,1.704 -1.212,2.484 0.025,-0.52 0.056,-1.13 0.093,-1.827 0.038,-0.699 0.062,-1.438 0.075,-2.219 0.012,-0.781 0.025,-1.574 0.037,-2.378 0.013,-0.805 0.019,-1.562 0.019,-2.271 V 0 h -4.697 v 23.957 h 6.3 l 7.008,-11.428 c 0.572,-0.923 1.113,-1.87 1.622,-2.84 0.509,-0.97 1,-1.904 1.472,-2.804 C 1.776,7.477 1.734,8.175 1.696,8.979 1.659,9.784 1.634,10.624 1.621,11.5 1.609,12.375 1.596,13.244 1.584,14.108 1.571,14.972 1.565,15.77 1.565,16.504 v 7.453 H 6.262 L 6.262,0 Z" /></g><g
           transform="translate(161.7094,144.7841)"
           id="g102"><path
             id="path104"
             style="fill:#11a8c7;fill-opacity:1;fill-rule:nonzero;stroke:none"
             d="M 0,0 V -20.018 H -4.847 V 0 H -11.37 V 3.94 H 6.524 l 0,-3.94 z" /></g><g
           transform="translate(193.2471,132.1978)"
           id="g106"><path
             id="path108"
             style="fill:#11a8c7;fill-opacity:1;fill-rule:nonzero;stroke:none"
             d="m 0,0 c 0,-1.138 -0.23,-2.181 -0.69,-3.129 -0.459,-0.948 -1.118,-1.772 -1.974,-2.471 -0.858,-0.699 -1.901,-1.244 -3.131,-1.635 -1.229,-0.391 -2.614,-0.587 -4.154,-0.587 -0.894,0 -1.776,0.048 -2.645,0.142 -0.87,0.095 -1.702,0.237 -2.497,0.426 l 0.298,4.295 c 0.72,-0.237 1.546,-0.438 2.477,-0.604 0.931,-0.165 1.856,-0.248 2.776,-0.248 1.241,0 2.278,0.248 3.11,0.745 0.832,0.497 1.248,1.301 1.248,2.414 0,0.757 -0.261,1.36 -0.782,1.81 -0.522,0.449 -1.175,0.84 -1.958,1.171 -0.783,0.331 -1.628,0.657 -2.535,0.976 -0.907,0.32 -1.752,0.733 -2.535,1.242 -0.783,0.509 -1.435,1.165 -1.957,1.97 -0.522,0.804 -0.783,1.869 -0.783,3.194 0,1.065 0.22,2.041 0.657,2.929 0.438,0.887 1.07,1.644 1.896,2.271 0.826,0.627 1.832,1.118 3.015,1.473 1.184,0.355 2.534,0.532 4.05,0.532 0.721,0 1.473,-0.041 2.256,-0.123 0.782,-0.082 1.547,-0.181 2.292,-0.299 L -1.827,12.48 c -0.721,0.189 -1.46,0.343 -2.218,0.461 -0.758,0.118 -1.522,0.178 -2.293,0.178 -1.416,0 -2.473,-0.273 -3.168,-0.818 -0.696,-0.545 -1.044,-1.245 -1.044,-2.098 0,-0.711 0.26,-1.286 0.78,-1.724 C -9.25,8.041 -8.6,7.65 -7.82,7.306 -7.04,6.962 -6.192,6.624 -5.275,6.293 -4.359,5.961 -3.511,5.534 -2.73,5.013 -1.951,4.491 -1.301,3.839 -0.78,3.057 -0.26,2.275 0,1.256 0,0" /></g><g
           transform="translate(58.1707,100.119)"
           id="g110"><path
             id="path112"
             style="fill:#11a8c7;fill-opacity:1;fill-rule:nonzero;stroke:none"
             d="M 0,0 V 9.652 H 4.737 V 8.565 H 1.256 V 5.505 H 4.574 V 4.447 H 1.256 V 1.101 H 4.737 V 0 Z" /></g><g
           transform="translate(68.3404,108.6696)"
           id="g114"><path
             id="path116"
             style="fill:#11a8c7;fill-opacity:1;fill-rule:nonzero;stroke:none"
             d="M 0,0 V -8.551 H -1.256 V 0 H -3.905 V 1.101 H 2.662 V 0 Z" /></g><g
           transform="translate(85.6783,100.0954)"
           id="g118"><path
             id="path120"
             style="fill:#11a8c7;fill-opacity:1;fill-rule:nonzero;stroke:none"
             d="m 0,0 c -0.663,-0.126 -1.356,-0.189 -2.079,-0.189 -1.34,0 -2.459,0.213 -3.355,0.639 -0.896,0.425 -1.619,0.997 -2.169,1.715 -0.55,0.718 -0.941,1.538 -1.175,2.461 -0.233,0.923 -0.35,1.881 -0.35,2.875 0,1.261 0.158,2.421 0.475,3.478 0.316,1.056 0.79,1.964 1.423,2.721 0.633,0.757 1.427,1.349 2.384,1.774 0.956,0.426 2.074,0.639 3.355,0.639 0.542,0 1.092,-0.035 1.649,-0.106 C 0.715,15.936 1.242,15.83 1.74,15.688 L 1.423,12.896 c -1.024,0.315 -2.048,0.473 -3.073,0.473 -0.708,0 -1.329,-0.134 -1.863,-0.403 -0.535,-0.268 -0.98,-0.638 -1.333,-1.112 -0.355,-0.473 -0.618,-1.037 -0.791,-1.691 -0.173,-0.655 -0.26,-1.369 -0.26,-2.142 0,-1.751 0.354,-3.091 1.062,-4.022 0.708,-0.931 1.837,-1.396 3.389,-1.396 0.467,0 0.979,0.062 1.536,0.189 0.557,0.126 1.032,0.284 1.424,0.473 L 1.853,0.52 C 1.28,0.299 0.662,0.126 0,0" /></g><g
           transform="translate(100.0251,100.119)"
           id="g122"><path
             id="path124"
             style="fill:#11a8c7;fill-opacity:1;fill-rule:nonzero;stroke:none"
             d="M 0,0 V 6.933 H -6.462 V 0 h -2.937 v 15.972 h 2.937 V 9.583 H 0 v 6.389 H 2.937 V 0 Z" /></g><g
           transform="translate(112.745,110.0098)"
           id="g126"><path
             id="path128"
             style="fill:#11a8c7;fill-opacity:1;fill-rule:nonzero;stroke:none"
             d="M 0,0 C -0.151,0.441 -0.283,0.864 -0.395,1.266 -0.508,1.668 -0.61,2.097 -0.7,2.555 H -0.723 C -0.904,1.703 -1.145,0.812 -1.446,-0.118 l -1.378,-4.07 H 1.423 Z M 3.253,-9.891 2.192,-6.625 H -3.57 L -4.632,-9.891 H -7.591 L -2.259,6.081 H 1.062 L 6.507,-9.891 Z" /></g><g
           transform="translate(131.963,101.4323)"
           id="g130"><path
             id="path132"
             style="fill:#11a8c7;fill-opacity:1;fill-rule:nonzero;stroke:none"
             d="m 0,0 c -1.105,-1.049 -2.657,-1.574 -4.657,-1.574 -1.202,0 -2.183,0.157 -2.942,0.469 -0.759,0.313 -1.357,0.734 -1.794,1.266 -0.436,0.531 -0.737,1.148 -0.902,1.85 -0.165,0.702 -0.248,1.432 -0.248,2.189 v 10.434 h 2.938 V 4.389 c 0,-0.505 0.045,-0.966 0.135,-1.384 0.091,-0.418 0.256,-0.781 0.497,-1.089 0.241,-0.307 0.565,-0.544 0.972,-0.709 0.407,-0.166 0.926,-0.249 1.559,-0.249 1.13,0 1.946,0.28 2.451,0.84 0.504,0.56 0.757,1.518 0.757,2.875 v 9.961 H 1.658 V 4.863 C 1.658,2.67 1.105,1.049 0,0" /></g><g
           transform="translate(146.2282,105.0731)"
           id="g134"><path
             id="path136"
             style="fill:#11a8c7;fill-opacity:1;fill-rule:nonzero;stroke:none"
             d="m 0,0 c 0,-0.759 -0.14,-1.454 -0.418,-2.086 -0.279,-0.632 -0.678,-1.181 -1.197,-1.647 -0.52,-0.466 -1.152,-0.83 -1.897,-1.09 -0.745,-0.261 -1.584,-0.391 -2.517,-0.391 -0.543,0 -1.077,0.031 -1.604,0.094 -0.527,0.063 -1.032,0.158 -1.513,0.284 l 0.181,2.863 c 0.436,-0.158 0.937,-0.292 1.501,-0.402 0.564,-0.11 1.125,-0.165 1.682,-0.165 0.752,0 1.381,0.165 1.885,0.496 0.504,0.332 0.756,0.867 0.756,1.609 0,0.505 -0.158,0.907 -0.474,1.207 -0.316,0.3 -0.712,0.56 -1.186,0.781 -0.475,0.22 -0.987,0.438 -1.537,0.65 -0.549,0.214 -1.062,0.489 -1.536,0.829 -0.474,0.339 -0.87,0.776 -1.186,1.313 -0.316,0.536 -0.475,1.246 -0.475,2.129 0,0.71 0.133,1.361 0.399,1.952 0.265,0.592 0.649,1.097 1.149,1.515 0.5,0.418 1.11,0.745 1.827,0.982 0.717,0.237 1.536,0.355 2.455,0.355 0.436,0 0.892,-0.028 1.366,-0.082 0.475,-0.055 0.938,-0.121 1.39,-0.199 L -1.107,8.32 c -0.437,0.126 -0.885,0.229 -1.344,0.308 -0.46,0.079 -0.923,0.118 -1.39,0.118 -0.858,0 -1.499,-0.182 -1.92,-0.545 -0.422,-0.364 -0.633,-0.83 -0.633,-1.398 0,-0.475 0.158,-0.858 0.473,-1.15 C -5.606,5.36 -5.212,5.1 -4.739,4.871 -4.267,4.642 -3.752,4.416 -3.197,4.195 -2.642,3.974 -2.128,3.689 -1.655,3.342 -1.182,2.994 -0.789,2.56 -0.473,2.038 -0.158,1.517 0,0.838 0,0" /></g><g
           transform="translate(158.1572,105.0731)"
           id="g138"><path
             id="path140"
             style="fill:#11a8c7;fill-opacity:1;fill-rule:nonzero;stroke:none"
             d="m 0,0 c 0,-0.759 -0.14,-1.454 -0.418,-2.086 -0.279,-0.632 -0.678,-1.181 -1.197,-1.647 -0.519,-0.466 -1.152,-0.83 -1.897,-1.09 -0.745,-0.261 -1.584,-0.391 -2.517,-0.391 -0.543,0 -1.077,0.031 -1.604,0.094 -0.527,0.063 -1.032,0.158 -1.513,0.284 l 0.181,2.863 c 0.436,-0.158 0.937,-0.292 1.501,-0.402 0.564,-0.11 1.125,-0.165 1.682,-0.165 0.752,0 1.381,0.165 1.885,0.496 0.504,0.332 0.756,0.867 0.756,1.609 0,0.505 -0.158,0.907 -0.474,1.207 -0.316,0.3 -0.712,0.56 -1.186,0.781 -0.475,0.22 -0.987,0.438 -1.537,0.65 -0.549,0.214 -1.062,0.489 -1.536,0.829 -0.474,0.339 -0.87,0.776 -1.186,1.313 -0.316,0.536 -0.475,1.246 -0.475,2.129 0,0.71 0.133,1.361 0.399,1.952 0.265,0.592 0.649,1.097 1.149,1.515 0.5,0.418 1.11,0.745 1.827,0.982 0.717,0.237 1.536,0.355 2.455,0.355 0.436,0 0.892,-0.028 1.366,-0.082 0.475,-0.055 0.938,-0.121 1.39,-0.199 L -1.107,8.32 c -0.437,0.126 -0.885,0.229 -1.344,0.308 -0.46,0.079 -0.923,0.118 -1.39,0.118 -0.858,0 -1.499,-0.182 -1.92,-0.545 -0.422,-0.364 -0.633,-0.83 -0.633,-1.398 0,-0.475 0.158,-0.858 0.473,-1.15 C -5.606,5.36 -5.212,5.1 -4.739,4.871 -4.267,4.642 -3.752,4.416 -3.197,4.195 -2.642,3.974 -2.128,3.689 -1.655,3.342 -1.182,2.994 -0.789,2.56 -0.473,2.038 -0.158,1.517 0,0.838 0,0" /></g><g
           transform="translate(164.3248,117.1316)"
           id="g142"><path
             id="path144"
             style="fill:#11a8c7;fill-opacity:1;fill-rule:nonzero;stroke:none"
             d="M 0,0 -0.994,1.727 2.96,4.33 4.157,2.248 Z M -3.095,-17.013 V -1.041 H 5.197 V -3.62 h -5.355 v -3.904 h 5.083 v -2.532 h -5.083 v -4.33 h 5.355 v -2.627 z" /></g><g
           transform="translate(172.9327,100.119)"
           id="g146"><path
             id="path148"
             style="fill:#11a8c7;fill-opacity:1;fill-rule:nonzero;stroke:none"
             d="m 0,0 v 15.972 h 8.292 v -2.58 H 2.937 V 9.488 H 8.021 V 6.957 H 2.937 V 2.626 H 8.292 V 0 Z" /></g><g
           transform="translate(193.4926,105.0731)"
           id="g150"><path
             id="path152"
             style="fill:#11a8c7;fill-opacity:1;fill-rule:nonzero;stroke:none"
             d="m 0,0 c 0,-0.759 -0.14,-1.454 -0.418,-2.086 -0.279,-0.632 -0.678,-1.181 -1.197,-1.647 -0.52,-0.466 -1.152,-0.83 -1.897,-1.09 -0.745,-0.261 -1.584,-0.391 -2.517,-0.391 -0.543,0 -1.077,0.031 -1.604,0.094 -0.527,0.063 -1.032,0.158 -1.513,0.284 l 0.18,2.863 c 0.437,-0.158 0.938,-0.292 1.502,-0.402 0.564,-0.11 1.125,-0.165 1.682,-0.165 0.752,0 1.381,0.165 1.885,0.496 0.504,0.332 0.756,0.867 0.756,1.609 0,0.505 -0.158,0.907 -0.474,1.207 -0.316,0.3 -0.712,0.56 -1.186,0.781 -0.475,0.22 -0.987,0.438 -1.537,0.65 -0.549,0.214 -1.062,0.489 -1.536,0.829 -0.474,0.339 -0.87,0.776 -1.186,1.313 -0.316,0.536 -0.475,1.246 -0.475,2.129 0,0.71 0.133,1.361 0.399,1.952 0.265,0.592 0.649,1.097 1.149,1.515 0.5,0.418 1.11,0.745 1.827,0.982 0.717,0.237 1.536,0.355 2.455,0.355 0.436,0 0.892,-0.028 1.366,-0.082 0.475,-0.055 0.938,-0.121 1.39,-0.199 L -1.107,8.32 c -0.437,0.126 -0.885,0.229 -1.344,0.308 -0.46,0.079 -0.923,0.118 -1.39,0.118 -0.858,0 -1.499,-0.182 -1.92,-0.545 -0.422,-0.364 -0.633,-0.83 -0.633,-1.398 0,-0.475 0.158,-0.858 0.473,-1.15 C -5.606,5.36 -5.212,5.1 -4.739,4.871 -4.267,4.642 -3.752,4.416 -3.197,4.195 -2.642,3.974 -2.128,3.689 -1.655,3.342 -1.182,2.994 -0.789,2.56 -0.473,2.038 -0.158,1.517 0,0.838 0,0" /></g><g
           transform="translate(66.9756,45.2267)"
           id="g154"><path
             id="path156"
             style="fill:#2b2b2a;fill-opacity:1;fill-rule:nonzero;stroke:none"
             d="m 0,0 c -6.656,4.58 -10.243,7.025 -13.607,9.525 -1.62,-2.675 -2.553,-5.812 -2.553,-9.168 0,-6.085 3.068,-11.453 7.741,-14.644 C -6.473,-10.45 -3.856,-6.177 0,0" /></g><g
           transform="translate(84.4061,41.6917)"
           id="g158"><path
             id="path160"
             style="fill:#2b2b2a;fill-opacity:1;fill-rule:nonzero;stroke:none"
             d="m 0,0 c -2.741,-2.909 -7.131,-3.336 -10.274,-1.355 -0.606,0.382 -4.936,3.367 -4.936,3.367 -4.784,-6.755 -7.241,-10.15 -9.881,-13.256 2.687,-1.641 5.845,-2.587 9.224,-2.587 9.503,0 17.258,7.479 17.702,16.871 C 1.45,1.91 0.819,0.861 0,0" /></g><g
           transform="translate(81.1308,51.6749)"
           id="g162"><path
             id="path164"
             style="fill:#2b2b2a;fill-opacity:1;fill-rule:nonzero;stroke:none"
             d="m 0,0 c -0.59,0.388 -4.389,2.916 -4.389,2.916 -3.112,-4.588 -3.601,-5.262 -5.98,-8.669 0,0 4.135,-2.677 4.732,-3.045 2.14,-1.319 4.98,-0.925 6.646,0.93 0.642,0.713 1.098,1.597 1.272,2.53 C 2.613,-3.615 2.063,-1.357 0,0" /></g><g
           transform="translate(68.3714,47.4611)"
           id="g166"><path
             id="path168"
             style="fill:#2b2b2a;fill-opacity:1;fill-rule:nonzero;stroke:none"
             d="m 0,0 c 2.249,3.583 4.278,6.774 7.472,11.597 0,0 6.698,-4.417 7.295,-4.842 C 15.472,6.253 15.982,5.75 16.39,5.264 13.643,11.495 7.415,15.847 0.168,15.847 -5.608,15.847 -10.737,13.082 -13.973,8.806 -10.405,6.69 -6.142,3.949 0,0" /></g><g
           transform="translate(51.7811,58.3466)"
           id="g170"><path
             id="path172"
             style="fill:#2b2b2a;fill-opacity:1;fill-rule:nonzero;stroke:none"
             d="M 0,0 C 0.004,1.234 -0.993,2.238 -2.227,2.243 -3.462,2.247 -4.466,1.25 -4.47,0.016 -4.474,-1.219 -3.477,-2.223 -2.243,-2.227 -1.008,-2.232 -0.004,-1.234 0,0" /></g><g
           transform="translate(55.356,64.196)"
           id="g174"><path
             id="path176"
             style="fill:#2b2b2a;fill-opacity:1;fill-rule:nonzero;stroke:none"
             d="M 0,0 C 0.355,0.254 0.434,0.61 0.235,0.889 L 0.23,0.896 C 0.006,1.209 -0.336,1.212 -0.687,0.962 l -0.546,-0.39 0.687,-0.962 z m -2.008,0.664 1.054,0.752 C -0.333,1.861 0.314,1.787 0.699,1.249 L 0.704,1.241 C 1.132,0.642 0.875,-0.014 0.288,-0.434 l -0.531,-0.379 0.614,-0.859 -0.47,-0.335 z" /></g><g
           transform="translate(60.3026,66.9409)"
           id="g178"><path
             id="path180"
             style="fill:#2b2b2a;fill-opacity:1;fill-rule:nonzero;stroke:none"
             d="M 0,0 -0.004,0.009 C -0.262,0.592 -0.901,0.889 -1.497,0.626 -2.094,0.363 -2.3,-0.298 -2.042,-0.881 L -2.038,-0.89 C -1.78,-1.474 -1.141,-1.771 -0.544,-1.507 0.052,-1.244 0.258,-0.584 0,0 m -2.588,-1.143 -0.004,0.008 c -0.373,0.846 -0.033,1.842 0.889,2.25 C -0.78,1.522 0.172,1.107 0.546,0.262 L 0.55,0.253 c 0.373,-0.845 0.034,-1.841 -0.889,-2.249 -0.923,-0.408 -1.875,0.007 -2.249,0.853" /></g><g
           transform="translate(62.2473,69.2944)"
           id="g182"><path
             id="path184"
             style="fill:#2b2b2a;fill-opacity:1;fill-rule:nonzero;stroke:none"
             d="M 0,0 0.563,0.123 1.154,-2.57 2.84,-2.201 2.952,-2.714 0.703,-3.207 Z" /></g><g
           transform="translate(66.8885,68.0393)"
           id="g186"><path
             id="path188"
             style="fill:#2b2b2a;fill-opacity:1;fill-rule:nonzero;stroke:none"
             d="M 0,0 -1.419,1.909 -0.74,1.949 0.264,0.551 1.105,2.058 1.765,2.097 0.58,0.049 0.657,-1.258 0.077,-1.292 Z" /></g><g
           transform="translate(71.0072,69.4226)"
           id="g190"><path
             id="path192"
             style="fill:#2b2b2a;fill-opacity:1;fill-rule:nonzero;stroke:none"
             d="M 0,0 -1.034,0.12 -0.973,0.651 1.673,0.344 1.612,-0.187 0.578,-0.067 0.262,-2.797 -0.316,-2.73 Z" /></g><g
           transform="translate(74.6378,69.3399)"
           id="g194"><path
             id="path196"
             style="fill:#2b2b2a;fill-opacity:1;fill-rule:nonzero;stroke:none"
             d="M 0,0 2.327,-0.714 2.176,-1.207 0.4,-0.662 0.15,-1.479 1.724,-1.961 1.573,-2.455 -0.001,-1.972 -0.26,-2.815 1.538,-3.367 1.387,-3.86 l -2.35,0.721 z" /></g><g
           transform="translate(78.1022,66.3887)"
           id="g198"><path
             id="path200"
             style="fill:#2b2b2a;fill-opacity:1;fill-rule:nonzero;stroke:none"
             d="M 0,0 0.004,0.008 C 0.447,0.83 1.425,1.171 2.3,0.699 2.833,0.412 3.055,0.053 3.189,-0.361 L 2.66,-0.56 C 2.545,-0.221 2.375,0.057 2.045,0.235 1.492,0.533 0.846,0.295 0.541,-0.271 L 0.537,-0.279 C 0.232,-0.844 0.383,-1.523 0.937,-1.821 1.292,-2.012 1.596,-1.99 1.969,-1.892 L 2.117,-2.399 C 1.646,-2.55 1.209,-2.57 0.669,-2.279 -0.174,-1.825 -0.447,-0.83 0,0" /></g><g
           transform="translate(83.2171,65.2498)"
           id="g202"><path
             id="path204"
             style="fill:#2b2b2a;fill-opacity:1;fill-rule:nonzero;stroke:none"
             d="m 0,0 0.442,-0.371 -0.877,-1.046 1.202,-1.007 0.877,1.047 0.442,-0.371 -2.109,-2.517 -0.443,0.371 0.889,1.06 -1.201,1.007 -0.889,-1.061 -0.442,0.371 z" /></g><g
           transform="translate(87.0508,61.6908)"
           id="g206"><path
             id="path208"
             style="fill:#2b2b2a;fill-opacity:1;fill-rule:nonzero;stroke:none"
             d="m 0,0 0.327,-0.423 -0.718,-2.779 1.795,1.389 0.347,-0.449 -2.595,-2.009 -0.296,0.382 0.738,2.861 -1.846,-1.43 -0.347,0.449 z" /></g><g
           transform="translate(89.9377,57.527)"
           id="g210"><path
             id="path212"
             style="fill:#2b2b2a;fill-opacity:1;fill-rule:nonzero;stroke:none"
             d="M 0,0 0.276,-0.506 -2.607,-2.077 -2.883,-1.57 Z" /></g><g
           transform="translate(89.4014,52.1355)"
           id="g214"><path
             id="path216"
             style="fill:#2b2b2a;fill-opacity:1;fill-rule:nonzero;stroke:none"
             d="M 0,0 0.27,0.688 0.789,0.475 0.486,-0.23 c 0.2,-0.05 0.418,-0.035 0.636,0.04 L 1.13,-0.187 C 1.734,0.02 2.084,0.632 1.873,1.248 1.661,1.865 1.021,2.126 0.417,1.919 L 0.408,1.916 C -0.195,1.709 -0.546,1.097 -0.334,0.481 -0.264,0.277 -0.144,0.114 0,0 m -0.221,-0.527 c -0.276,0.198 -0.492,0.48 -0.617,0.844 -0.328,0.954 0.167,1.868 1.041,2.168 L 0.212,2.488 C 1.086,2.788 2.049,2.365 2.377,1.411 2.705,0.458 2.21,-0.456 1.336,-0.756 L 1.327,-0.759 C 0.977,-0.88 0.605,-0.883 0.265,-0.772 l -0.18,-0.458 -0.511,0.216 z" /></g><g
           transform="translate(90.842,49.6094)"
           id="g218"><path
             id="path220"
             style="fill:#2b2b2a;fill-opacity:1;fill-rule:nonzero;stroke:none"
             d="M 0,0 1.877,0.221 1.944,-0.352 0.09,-0.57 c -0.605,-0.071 -0.894,-0.422 -0.834,-0.934 0.06,-0.508 0.404,-0.784 1.005,-0.713 L 2.138,-1.997 2.205,-2.57 0.356,-2.787 C -0.618,-2.902 -1.172,-2.41 -1.272,-1.557 -1.371,-0.709 -0.946,-0.111 0,0" /></g><g
           transform="translate(93.0665,44.8193)"
           id="g222"><path
             id="path224"
             style="fill:#2b2b2a;fill-opacity:1;fill-rule:nonzero;stroke:none"
             d="m 0,0 -0.187,-2.428 -0.514,0.04 0.142,1.852 -0.851,0.066 -0.127,-1.642 -0.514,0.04 0.126,1.642 -0.879,0.067 -0.145,-1.875 -0.514,0.039 0.189,2.451 z" /></g><g
           transform="translate(54.5735,25.4294)"
           id="g226"><path
             id="path228"
             style="fill:#2b2b2a;fill-opacity:1;fill-rule:nonzero;stroke:none"
             d="M 0,0 -0.471,0.334 1.43,3.012 1.901,2.678 Z" /></g><g
           transform="translate(52.155,27.288)"
           id="g230"><path
             id="path232"
             style="fill:#2b2b2a;fill-opacity:1;fill-rule:nonzero;stroke:none"
             d="m 0,0 -0.377,0.379 0.371,2.847 -1.61,-1.599 -0.4,0.402 L 0.313,4.343 0.653,4 0.272,1.07 1.929,2.716 2.329,2.313 Z" /></g><g
           transform="translate(51.1404,32.5287)"
           id="g234"><path
             id="path236"
             style="fill:#2b2b2a;fill-opacity:1;fill-rule:nonzero;stroke:none"
             d="m 0,0 -0.536,0.063 c 0.055,0.412 0.011,0.759 -0.213,1.1 -0.196,0.298 -0.457,0.396 -0.665,0.259 L -1.422,1.417 C -1.618,1.288 -1.651,1.108 -1.433,0.522 -1.19,-0.155 -1.146,-0.597 -1.651,-0.93 l -0.008,-0.005 c -0.47,-0.31 -1.053,-0.132 -1.411,0.412 -0.263,0.4 -0.351,0.797 -0.311,1.222 l 0.535,-0.018 c -0.022,-0.369 0.043,-0.68 0.208,-0.93 0.186,-0.282 0.439,-0.351 0.619,-0.233 l 0.008,0.005 c 0.211,0.14 0.223,0.327 0.002,0.934 -0.24,0.673 -0.231,1.111 0.223,1.41 l 0.008,0.006 C -1.265,2.21 -0.694,2.008 -0.315,1.433 -0.039,1.013 0.077,0.522 0,0" /></g><g
           transform="translate(46.6355,35.8245)"
           id="g238"><path
             id="path240"
             style="fill:#2b2b2a;fill-opacity:1;fill-rule:nonzero;stroke:none"
             d="M 0,0 0.411,-0.957 -0.08,-1.168 -1.132,1.28 -0.641,1.491 -0.23,0.534 2.296,1.62 2.526,1.085 Z" /></g><g
           transform="translate(44.9622,38.8813)"
           id="g242"><path
             id="path244"
             style="fill:#2b2b2a;fill-opacity:1;fill-rule:nonzero;stroke:none"
             d="M 0,0 -0.151,0.557 3.019,1.416 3.17,0.858 Z" /></g><g
           transform="translate(44.7836,42.3398)"
           id="g246"><path
             id="path248"
             style="fill:#2b2b2a;fill-opacity:1;fill-rule:nonzero;stroke:none"
             d="M 0,0 0.129,-1.034 -0.402,-1.1 -0.731,1.545 -0.201,1.611 -0.072,0.577 2.656,0.917 2.728,0.34 Z" /></g><g
           transform="translate(45.8754,45.6535)"
           id="g250"><path
             id="path252"
             style="fill:#2b2b2a;fill-opacity:1;fill-rule:nonzero;stroke:none"
             d="m 0,0 -1.887,0.121 0.038,0.576 1.863,-0.12 C 0.622,0.538 0.97,0.83 1.003,1.346 1.036,1.856 0.747,2.189 0.144,2.228 L -1.743,2.35 -1.706,2.926 0.153,2.806 C 1.131,2.743 1.587,2.159 1.532,1.302 1.477,0.45 0.95,-0.061 0,0" /></g><g
           transform="translate(45.2567,51.3261)"
           id="g254"><path
             id="path256"
             style="fill:#2b2b2a;fill-opacity:1;fill-rule:nonzero;stroke:none"
             d="M 0,0 -0.262,-1.008 -0.78,-0.873 -0.109,1.705 0.408,1.571 0.146,0.563 2.807,-0.128 2.66,-0.691 Z" /></g><g
           transform="translate(61.8486,22.9912)"
           id="g258"><path
             id="path260"
             style="fill:#2b2b2a;fill-opacity:1;fill-rule:nonzero;stroke:none"
             d="M 0,0 C 0.506,-0.144 0.891,-0.028 1.027,0.449 L 1.029,0.458 C 1.165,0.936 0.898,1.236 0.393,1.38 L 0.208,1.433 -0.184,0.053 Z M -0.624,2.712 0.643,2.351 C 1.957,1.978 2.43,1.143 2.152,0.165 L 2.149,0.155 C 1.871,-0.823 1.002,-1.327 -0.336,-0.947 l -1.229,0.35 z" /></g><g
           transform="translate(66.0921,24.5497)"
           id="g262"><path
             id="path264"
             style="fill:#2b2b2a;fill-opacity:1;fill-rule:nonzero;stroke:none"
             d="M 0,0 2.931,-0.144 2.885,-1.086 1.083,-0.998 1.066,-1.347 2.745,-1.429 2.704,-2.259 1.025,-2.176 1.007,-2.549 2.833,-2.639 2.787,-3.581 -0.168,-3.437 Z" /></g><g
           transform="translate(75.255,23.7553)"
           id="g266"><path
             id="path268"
             style="fill:#2b2b2a;fill-opacity:1;fill-rule:nonzero;stroke:none"
             d="M 0,0 C 0.282,0.086 0.431,0.271 0.359,0.505 L 0.357,0.515 C 0.283,0.755 0.072,0.824 -0.219,0.734 L -0.52,0.643 -0.296,-0.09 Z m -1.888,1.185 1.48,0.453 C 0.466,1.905 1.182,1.697 1.42,0.917 L 1.423,0.908 C 1.666,0.113 1.189,-0.494 0.301,-0.766 l -0.357,-0.109 0.273,-0.893 -1.1,-0.336 z" /></g><g
           transform="translate(80.3356,25.4647)"
           id="g270"><path
             id="path272"
             style="fill:#2b2b2a;fill-opacity:1;fill-rule:nonzero;stroke:none"
             d="m 0,0 -0.686,0.571 0.139,-0.882 z M -1.842,1.47 -0.85,2.033 2.123,-0.264 1.038,-0.881 0.651,-0.569 -0.396,-1.164 -0.322,-1.653 -1.39,-2.26 Z" /></g><g
           transform="translate(84.1649,28.9854)"
           id="g274"><path
             id="path276"
             style="fill:#2b2b2a;fill-opacity:1;fill-rule:nonzero;stroke:none"
             d="M 0,0 C 0.201,0.188 0.24,0.392 0.096,0.546 L 0.089,0.553 C -0.062,0.715 -0.262,0.677 -0.456,0.496 L -0.822,0.154 -0.363,-0.339 Z M -2.321,0.073 -1.092,1.22 C -0.646,1.636 -0.258,1.79 0.082,1.778 0.374,1.768 0.628,1.655 0.869,1.396 L 0.876,1.389 C 1.218,1.022 1.266,0.589 1.098,0.157 L 2.482,-0.152 1.522,-1.047 0.377,-0.771 0.37,-0.778 0.197,-0.939 0.868,-1.658 0.027,-2.443 Z" /></g><g
           transform="translate(85.2906,32.638)"
           id="g278"><path
             id="path280"
             style="fill:#2b2b2a;fill-opacity:1;fill-rule:nonzero;stroke:none"
             d="M 0,0 0.68,0.928 3.455,-1.106 2.775,-2.034 Z" /></g><g
           transform="translate(89.4646,33.5213)"
           id="g282"><path
             id="path284"
             style="fill:#2b2b2a;fill-opacity:1;fill-rule:nonzero;stroke:none"
             d="M 0,0 -0.39,0.873 C 0.03,1.084 0.323,1.417 0.5,1.779 0.59,1.965 0.58,2.068 0.496,2.109 L 0.487,2.113 C 0.399,2.156 0.303,2.083 0.075,1.783 -0.404,1.158 -0.899,0.645 -1.553,0.963 l -0.009,0.005 c -0.588,0.286 -0.82,0.967 -0.405,1.82 0.291,0.596 0.647,0.969 1.104,1.19 L -0.41,3.134 C -0.764,2.946 -1.026,2.642 -1.166,2.355 -1.241,2.2 -1.223,2.103 -1.148,2.067 l 0.009,-0.004 c 0.084,-0.041 0.178,0.017 0.399,0.314 0.531,0.72 1.019,1.138 1.642,0.835 L 0.911,3.208 C 1.56,2.892 1.698,2.164 1.294,1.333 0.988,0.705 0.536,0.226 0,0" /></g><path
           id="path286"
           style="fill:#2b2b2a;fill-opacity:1;fill-rule:nonzero;stroke:none"
           d="m 102.902,53.174 h 3.333 V 38.023 h -3.333 z" /><g
           transform="translate(118.6402,45.5333)"
           id="g288"><path
             id="path290"
             style="fill:#2b2b2a;fill-opacity:1;fill-rule:nonzero;stroke:none"
             d="m 0,0 h -2.641 v 4.632 h 2.576 C 1.602,4.632 2.64,3.809 2.64,2.316 2.64,1.017 1.666,0 0,0 M 0.217,7.641 H -5.974 V -7.51 h 3.333 v 4.545 h 2.533 c 3.398,0 6.125,1.84 6.125,5.346 0,3.095 -2.186,5.26 -5.8,5.26" /></g><g
           transform="translate(141.4802,45.5333)"
           id="g292"><path
             id="path294"
             style="fill:#2b2b2a;fill-opacity:1;fill-rule:nonzero;stroke:none"
             d="m 0,0 h -2.641 v 4.632 h 2.576 C 1.602,4.632 2.64,3.809 2.64,2.316 2.64,1.017 1.666,0 0,0 M 0.217,7.641 H -5.974 V -7.51 h 3.333 v 4.545 h 2.533 c 3.398,0 6.125,1.84 6.125,5.346 0,3.095 -2.186,5.26 -5.8,5.26" /></g><g
           transform="translate(159.3172,44.3645)"
           id="g296"><path
             id="path298"
             style="fill:#2b2b2a;fill-opacity:1;fill-rule:nonzero;stroke:none"
             d="M 0,0 -2.014,4.913 -4.026,0 Z m -3.507,8.918 h 3.074 L 6.06,-6.342 H 2.575 L 1.19,-2.944 H -5.217 L -6.602,-6.342 H -10 Z" /></g><g
           transform="translate(176.2658,45.8149)"
           id="g300"><path
             id="path302"
             style="fill:#2b2b2a;fill-opacity:1;fill-rule:nonzero;stroke:none"
             d="m 0,0 c 1.623,0 2.554,0.866 2.554,2.143 v 0.043 c 0,1.428 -0.995,2.164 -2.619,2.164 H -3.377 V 0 Z M -6.71,7.359 H 0.217 C 2.143,7.359 3.636,6.818 4.632,5.822 5.476,4.978 5.931,3.788 5.931,2.359 V 2.315 c 0,-2.445 -1.321,-3.982 -3.247,-4.697 l 3.701,-5.41 H 2.489 l -3.247,4.848 H -0.801 -3.377 V -7.792 H -6.71 Z" /></g><path
           id="path304"
           style="fill:#2b2b2a;fill-opacity:1;fill-rule:nonzero;stroke:none"
           d="m 187.853,53.174 h 3.333 V 38.023 h -3.333 z" /><g
           transform="translate(203.288,47.0918)"
           id="g306"><path
             id="path308"
             style="fill:#2b2b2a;fill-opacity:1;fill-rule:nonzero;stroke:none"
             d="m 0,0 c -2.619,0.671 -3.269,1.017 -3.269,2.013 0,0.735 0.671,1.342 1.948,1.342 1.277,0 2.598,-0.563 3.939,-1.494 L 4.35,4.372 c -1.536,1.234 -3.42,1.927 -5.628,1.927 -3.094,0 -5.302,-1.84 -5.302,-4.589 0,-3.008 1.969,-3.875 5.021,-4.654 2.532,-0.649 3.052,-1.104 3.052,-1.948 0,-0.887 -0.822,-1.45 -2.186,-1.45 -1.732,0 -3.16,0.714 -4.524,1.84 l -1.97,-2.359 c 1.819,-1.624 4.135,-2.425 6.429,-2.425 3.268,0 5.562,1.71 5.562,4.719 C 4.804,-1.926 3.073,-0.801 0,0" /></g><path
           id="path310"
           style="fill:#2b2b2a;fill-opacity:1;fill-rule:nonzero;stroke:none"
           d="M 207.532,82.796 H 44.209 v 1.41 h 163.323 z" /></g></g></g></svg>